<svg xmlns="http://www.w3.org/2000/svg" viewBox="0 0 24 24"><title>school-locker</title><path d="M23.78,1.333a.493.493,0,0,0-.466-.051l-3.126.8A.249.249,0,0,0,20,2.328v9.843a.249.249,0,0,0,.185.241l3.074.827a.541.541,0,0,0,.521-.032.492.492,0,0,0,.22-.414V1.747A.492.492,0,0,0,23.78,1.333Z"/><path d="M18.5,1.754h-8a.25.25,0,0,0-.25.25v9.242a.25.25,0,0,0,.25.25h8.25a.25.25,0,0,0,.25-.25V2.254A.5.5,0,0,0,18.5,1.754Zm-5.25,8a.75.75,0,0,1-1.5,0v-4a.75.75,0,1,1,1.5,0Zm4.122.62a.8.8,0,0,1-1.023-.279l-2-3.5a.75.75,0,1,1,1.3-.744l2,3.5A.751.751,0,0,1,17.372,10.374Z"/><path d="M8.5,13H.25a.25.25,0,0,0-.25.25v8.008a1.5,1.5,0,0,0,1.5,1.5h7a.25.25,0,0,0,.25-.25V13.246A.25.25,0,0,0,8.5,13Zm-2,8.25a1,1,0,1,1,1-1A1,1,0,0,1,6.5,21.246Z"/><path d="M8.5,1.754h-7A1.5,1.5,0,0,0,0,3.254v7.992a.25.25,0,0,0,.25.25H8.5a.25.25,0,0,0,.25-.25V2A.25.25,0,0,0,8.5,1.754Zm-2,8.492a1,1,0,1,1,1-1A1,1,0,0,1,6.5,10.246Z"/><path d="M18.75,13H10.5a.25.25,0,0,0-.25.25V22.5a.25.25,0,0,0,.25.25h7a1.5,1.5,0,0,0,1.5-1.5V13.246A.25.25,0,0,0,18.75,13Zm-2.25,8.25a1,1,0,1,1,1-1A1,1,0,0,1,16.5,21.246Z"/></svg>