<svg xmlns="http://www.w3.org/2000/svg" viewBox="0 0 24 24"><title>school-building</title><path d="M23,13H17.5a.5.5,0,0,1-.5-.5V11a5.01,5.01,0,0,0-3.636-4.811A.5.5,0,0,1,13,5.708V5a.5.5,0,0,1,.5-.5h2.253A1.252,1.252,0,0,0,17,3.25v-2A1.252,1.252,0,0,0,15.753,0h-4A.75.75,0,0,0,11,.75l0,4.958a.5.5,0,0,1-.363.481A5.009,5.009,0,0,0,7,11v1.5a.5.5,0,0,1-.5.5H1a1.013,1.013,0,0,0-1,1v9a1,1,0,0,0,1,1h9.5a.5.5,0,0,0,.5-.5V19a1,1,0,0,1,2,0v4.5a.5.5,0,0,0,.5.5H23a.989.989,0,0,0,1-1V14A1,1,0,0,0,23,13ZM5.753,21a.5.5,0,0,1-.5.5h-2a.5.5,0,0,1-.5-.5V20a.5.5,0,0,1,.5-.5h2a.5.5,0,0,1,.5.5Zm0-4a.5.5,0,0,1-.5.5h-2a.5.5,0,0,1-.5-.5V16a.5.5,0,0,1,.5-.5h2a.5.5,0,0,1,.5.5ZM12,12.5A1.5,1.5,0,1,1,13.5,11,1.5,1.5,0,0,1,12,12.5Zm9.75,8.5a.5.5,0,0,1-.5.5h-2a.5.5,0,0,1-.5-.5V20a.5.5,0,0,1,.5-.5h2a.5.5,0,0,1,.5.5Zm0-4a.5.5,0,0,1-.5.5h-2a.5.5,0,0,1-.5-.5V16a.5.5,0,0,1,.5-.5h2a.5.5,0,0,1,.5.5Z"/></svg>