<svg xmlns="http://www.w3.org/2000/svg" viewBox="0 0 24 24"><title>school-exam-a</title><path d="M14.75,5.5a.751.751,0,0,0-.75.75V6.5a.5.5,0,0,0,.5.5H15a.5.5,0,0,0,.5-.5V6.25A.751.751,0,0,0,14.75,5.5Z"/><path d="M19,0H5A2,2,0,0,0,3,2V22a2,2,0,0,0,2,2h8.638a2,2,0,0,0,1.281-.464l5.362-4.469A1.993,1.993,0,0,0,21,17.532V2A2,2,0,0,0,19,0ZM10.5,19h-3a.75.75,0,0,1,0-1.5h3a.75.75,0,0,1,0,1.5ZM15,15H7.5a.75.75,0,0,1,0-1.5H15A.75.75,0,0,1,15,15Zm2-5a.75.75,0,0,1-1.5,0V9a.5.5,0,0,0-.5-.5h-.5A.5.5,0,0,0,14,9v1a.75.75,0,0,1-1.5,0V6.25a2.25,2.25,0,0,1,4.5,0Z"/></svg>