<svg xmlns="http://www.w3.org/2000/svg" viewBox="0 0 24 24"><title>school-bag</title><path d="M16.522,3.765a1,1,0,0,1-.634-.706,4,4,0,0,0-7.776,0,1,1,0,0,1-.633.707A4.507,4.507,0,0,0,4.5,8V22.462A1.54,1.54,0,0,0,6.038,24H17.962A1.54,1.54,0,0,0,19.5,22.462V8A4.509,4.509,0,0,0,16.522,3.765Zm-6.329-.622a2,2,0,0,1,3.637.05.215.215,0,0,1-.017.207.218.218,0,0,1-.183.1H10.419a.25.25,0,0,1-.226-.357ZM16.5,18.578A1.421,1.421,0,0,1,15.078,20H8.922A1.421,1.421,0,0,1,7.5,18.578V17a.5.5,0,0,1,.5-.5h4.75a.5.5,0,0,1,.5.5v.5a.75.75,0,0,0,1.5,0V17a.5.5,0,0,1,.5-.5H16a.5.5,0,0,1,.5.5Zm0-4.078a.5.5,0,0,1-.5.5H8a.5.5,0,0,1-.5-.5v-.411A1.59,1.59,0,0,1,9.089,12.5h5.822A1.59,1.59,0,0,1,16.5,14.089Z"/><path d="M2.5,14A2.5,2.5,0,0,0,0,16.5v5A2.5,2.5,0,0,0,2.5,24a.5.5,0,0,0,.5-.5v-9A.5.5,0,0,0,2.5,14Z"/><path d="M21.5,14a.5.5,0,0,0-.5.5v9a.5.5,0,0,0,.5.5A2.5,2.5,0,0,0,24,21.5v-5A2.5,2.5,0,0,0,21.5,14Z"/></svg>