<svg xmlns="http://www.w3.org/2000/svg" viewBox="0 0 24 24"><title>school-locker-closed</title><path d="M6.5,0h-5A1.5,1.5,0,0,0,0,1.5v21A1.5,1.5,0,0,0,1.5,24h5a.5.5,0,0,0,.5-.5V.5A.5.5,0,0,0,6.5,0Zm-2,21.25h-2a.75.75,0,0,1,0-1.5h2a.75.75,0,0,1,0,1.5ZM2,11a.75.75,0,1,1,.75.75A.755.755,0,0,1,2,11ZM4.5,6.25h-2a.75.75,0,0,1,0-1.5h2a.75.75,0,0,1,0,1.5Zm0-3h-2a.75.75,0,0,1,0-1.5h2a.75.75,0,0,1,0,1.5Z"/><path d="M15,0H9a.5.5,0,0,0-.5.5v23A.5.5,0,0,0,9,24h6a.5.5,0,0,0,.5-.5V.5A.5.5,0,0,0,15,0ZM13,21.25H11a.75.75,0,0,1,0-1.5h2a.75.75,0,0,1,0,1.5ZM10.5,11a.75.75,0,1,1,.75.75A.755.755,0,0,1,10.5,11ZM13,6.25H11a.75.75,0,0,1,0-1.5h2a.75.75,0,0,1,0,1.5Zm0-3H11a.75.75,0,0,1,0-1.5h2a.75.75,0,0,1,0,1.5Z"/><path d="M22.5,0h-5a.5.5,0,0,0-.5.5v23a.5.5,0,0,0,.5.5h5A1.5,1.5,0,0,0,24,22.5V1.5A1.5,1.5,0,0,0,22.5,0Zm-1,21.25h-2a.75.75,0,0,1,0-1.5h2a.75.75,0,0,1,0,1.5ZM19,11a.75.75,0,1,1,.75.75A.755.755,0,0,1,19,11Zm2.5-4.75h-2a.75.75,0,0,1,0-1.5h2a.75.75,0,0,1,0,1.5Zm0-3h-2a.75.75,0,0,1,0-1.5h2a.75.75,0,0,1,0,1.5Z"/></svg>