<svg xmlns="http://www.w3.org/2000/svg" viewBox="0 0 24 24"><title>school-exam-f-fail</title><path d="M19,0H5A2,2,0,0,0,3,2V22a2,2,0,0,0,2,2h8.638a2,2,0,0,0,1.281-.464l5.362-4.469A1.993,1.993,0,0,0,21,17.532V2A2,2,0,0,0,19,0ZM10.5,19h-3a.75.75,0,0,1,0-1.5h3a.75.75,0,0,1,0,1.5ZM15,15H7.5a.75.75,0,0,1,0-1.5H15A.75.75,0,0,1,15,15Zm1.25-9.5H14.5A.5.5,0,0,0,14,6v.5a.5.5,0,0,0,.5.5h.75a.75.75,0,0,1,0,1.5H14.5A.5.5,0,0,0,14,9v1a.75.75,0,0,1-1.5,0V5.75A1.752,1.752,0,0,1,14.25,4h2a.75.75,0,0,1,0,1.5Z"/></svg>