<svg xmlns="http://www.w3.org/2000/svg" viewBox="0 0 24 24"><title>school-teacher-physical-education</title><path d="M8.807,8.453a.25.25,0,0,1-.037-.418,4.5,4.5,0,1,0-5.54,0,.251.251,0,0,1-.036.418A6,6,0,0,0,0,13.75v3.5a1,1,0,0,0,1,1H2.121a.5.5,0,0,1,.5.458L3,23.312A.749.749,0,0,0,3.75,24h4.5A.749.749,0,0,0,9,23.312l.384-4.6a.5.5,0,0,1,.5-.458H11a1,1,0,0,0,1-1v-3.5A6,6,0,0,0,8.807,8.453ZM3.6,3.818a.25.25,0,0,1,.367-.147A5.964,5.964,0,0,0,7,4.5a5.854,5.854,0,0,0,1.186-.124A.25.25,0,0,1,8.4,4.43a.247.247,0,0,1,.087.2A2.495,2.495,0,1,1,3.6,3.818ZM10,15.75a.5.5,0,0,1-.5.5h-7a.5.5,0,0,1-.5-.5v-2A3.991,3.991,0,0,1,4.667,9.995a.245.245,0,0,1,.227.031.251.251,0,0,1,.106.2v3.52a1,1,0,0,0,2,0V10.23a.251.251,0,0,1,.106-.2.247.247,0,0,1,.228-.031A3.991,3.991,0,0,1,10,13.75Z"/><path d="M21,0H12.5a1,1,0,0,0,0,2H21a1,1,0,0,1,1,1V16a1,1,0,0,1-1,1H15a1,1,0,0,0,0,2h6a3,3,0,0,0,3-3V3A3,3,0,0,0,21,0Z"/><path d="M19.93,8.03a.251.251,0,0,0-.412-.091l-3.14,3.14a.251.251,0,0,0,.091.412l1.793.655a1.781,1.781,0,0,0,.621.111,1.811,1.811,0,0,0,1.7-2.433h0Z"/><path d="M15.4,10.639l3.674-3.674a.751.751,0,0,0,.174-.788L18.784,4.9A1.811,1.811,0,0,0,15.8,4.241L12.68,7.363a1.811,1.811,0,0,0,.658,2.983l1.278.467A.749.749,0,0,0,15.4,10.639Z"/></svg>