<svg xmlns="http://www.w3.org/2000/svg" viewBox="0 0 24 24"><title>school-board-maths</title><path d="M23,14.5H1a1,1,0,0,0-1,1V16a1.5,1.5,0,0,0,1.125,1.453.5.5,0,0,1,.375.484V23a1,1,0,0,0,2,0v-.75a.5.5,0,0,1,.5-.5H20a.5.5,0,0,1,.5.5V23a1,1,0,0,0,2,0V17.937a.5.5,0,0,1,.375-.484A1.5,1.5,0,0,0,24,16v-.5A1,1,0,0,0,23,14.5Zm-2.5,4.75a.5.5,0,0,1-.5.5H4a.5.5,0,0,1-.5-.5V18a.5.5,0,0,1,.5-.5H20a.5.5,0,0,1,.5.5Z"/><path d="M2.5,13h19a.5.5,0,0,0,.5-.5V1.5A1.5,1.5,0,0,0,20.5,0H3.5A1.5,1.5,0,0,0,2,1.5v11A.5.5,0,0,0,2.5,13ZM17.1,5.183a.253.253,0,0,0-.273.054l-.293.293a.75.75,0,1,1-1.06-1.06l1.323-1.324a1.348,1.348,0,0,1,.957-.4,1,1,0,0,1,1,1v4.5a.5.5,0,0,0,.5.5H20a.75.75,0,0,1,0,1.5H16a.75.75,0,0,1,0-1.5h.75a.5.5,0,0,0,.5-.5V5.414A.251.251,0,0,0,17.1,5.183ZM11,5.75h.25a.5.5,0,0,0,.5-.5V5a.75.75,0,0,1,1.5,0v.25a.5.5,0,0,0,.5.5H14a.75.75,0,0,1,0,1.5h-.25a.5.5,0,0,0-.5.5V8a.75.75,0,0,1-1.5,0V7.75a.5.5,0,0,0-.5-.5H11a.75.75,0,0,1,0-1.5ZM6.5,4.25A1.252,1.252,0,0,0,5.25,5.5a.75.75,0,0,1-1.5,0,2.75,2.75,0,1,1,4.4,2.2l-.8.6a.25.25,0,0,0,.15.45h1a.75.75,0,0,1,0,1.5h-4A.75.75,0,0,1,4.05,8.9l3.2-2.4A1.25,1.25,0,0,0,6.5,4.25Z"/></svg>