<svg xmlns="http://www.w3.org/2000/svg" viewBox="0 0 24 24"><title>school-board-chemistry</title><path d="M23,14.5H1a1,1,0,0,0-1,1V16a1.5,1.5,0,0,0,1.125,1.453.5.5,0,0,1,.375.484V23a1,1,0,0,0,2,0V22a.5.5,0,0,1,.5-.5H20a.5.5,0,0,1,.5.5v1a1,1,0,0,0,2,0V17.937a.5.5,0,0,1,.375-.484A1.5,1.5,0,0,0,24,16v-.5A1,1,0,0,0,23,14.5ZM20.5,19a.5.5,0,0,1-.5.5H4a.5.5,0,0,1-.5-.5V18a.5.5,0,0,1,.5-.5H20a.5.5,0,0,1,.5.5Z"/><path d="M7.522,5.717l.75.385a.5.5,0,0,0,.456,0l.75-.385a.5.5,0,0,0,.272-.445V4.334a.5.5,0,0,0-.276-.447l-.75-.375a.5.5,0,0,0-.448,0l-.75.375a.5.5,0,0,0-.276.447v.938A.5.5,0,0,0,7.522,5.717Z"/><path d="M14.522,9.217l.75.385a.5.5,0,0,0,.456,0l.75-.385a.5.5,0,0,0,.272-.445V7.834a.5.5,0,0,0-.276-.447l-.75-.375a.5.5,0,0,0-.448,0l-.75.375a.5.5,0,0,0-.276.447v.938A.5.5,0,0,0,14.522,9.217Z"/><path d="M2.5,13h19a.5.5,0,0,0,.5-.5V1.5A1.5,1.5,0,0,0,20.5,0H3.5A1.5,1.5,0,0,0,2,1.5v11A.5.5,0,0,0,2.5,13ZM5.75,3.871a1.244,1.244,0,0,1,.691-1.118L7.941,2A1.256,1.256,0,0,1,9.059,2l1.5.75a1.244,1.244,0,0,1,.691,1.118v1.4a.5.5,0,0,0,.273.445l1.275.649a.5.5,0,0,0,.505-.031c.107-.071.118-.068,1.171-.6a.5.5,0,0,0,.276-.447V3.5a.75.75,0,0,1,1.5,0V5.29a.5.5,0,0,0,.276.447l1.033.516a1.244,1.244,0,0,1,.691,1.118V9.23a1.243,1.243,0,0,1-.68,1.112l-1.5.77a1.25,1.25,0,0,1-1.142,0l-1.5-.77A1.244,1.244,0,0,1,12.75,9.23v-.9a.5.5,0,0,0-.273-.445l-1.748-.889a.5.5,0,0,0-.455,0l-.752.387a.5.5,0,0,0-.272.444v2.237a.75.75,0,0,1-1.5,0V7.825a.5.5,0,0,0-.272-.444L6.429,6.842A1.244,1.244,0,0,1,5.75,5.73Z"/></svg>