<svg xmlns="http://www.w3.org/2000/svg" viewBox="0 0 24 24"><title>school-book-apple</title><path d="M9.945,14.943a2.282,2.282,0,0,0,1.778-.495.445.445,0,0,1,.554,0,2.282,2.282,0,0,0,1.778.495c2.18,0,4.021-3.912,4.021-6.369,0-2.585-1.638-4.61-3.728-4.61a3.6,3.6,0,0,0-2.075.476c-.223.129-.223.187-.82-.062a4.985,4.985,0,0,0-1.318-.392,1.01,1.01,0,0,0-.777.219,1.028,1.028,0,0,0-.372.732C8.84,7.458,7.57,7.98,6.827,8.066a.987.987,0,0,0-.876,1.063C6.172,11.444,7.878,14.943,9.945,14.943Z"/><ellipse cx="13.679" cy="1.821" rx="2.392" ry="0.954" transform="translate(2.719 10.206) rotate(-45)"/><path d="M20,16H1a1,1,0,0,0,0,2H7a2,2,0,0,1,0,4H1a1,1,0,0,0,0,2H20a4,4,0,0,0,0-8Z"/></svg>