<svg xmlns="http://www.w3.org/2000/svg" viewBox="0 0 24 24"><title>school-teacher-braille</title><path d="M8.626,8.606a.254.254,0,0,1-.14-.205.25.25,0,0,1,.1-.224,4.5,4.5,0,1,0-5.182,0,.25.25,0,0,1-.035.429A6.006,6.006,0,0,0,0,14v3.5a1,1,0,0,0,1,1H2.126a.5.5,0,0,1,.5.457L3,23.315A.749.749,0,0,0,3.75,24h4.5A.749.749,0,0,0,9,23.315l.379-4.358a.5.5,0,0,1,.5-.457H11a1,1,0,0,0,1-1V14A6.006,6.006,0,0,0,8.626,8.606ZM3.5,4.5a2.5,2.5,0,0,1,.094-.679.251.251,0,0,1,.367-.148A5.97,5.97,0,0,0,7,4.5a6.026,6.026,0,0,0,1.2-.12.249.249,0,0,1,.213.055.251.251,0,0,1,.087.2,2.5,2.5,0,0,1-5-.138ZM10,16a.5.5,0,0,1-.5.5h-7A.5.5,0,0,1,2,16V14a4.006,4.006,0,0,1,2.666-3.771A.25.25,0,0,1,5,10.464V13.25a1,1,0,0,0,2,0V10.464a.25.25,0,0,1,.334-.235A4.006,4.006,0,0,1,10,14Z"/><path d="M21,0H11.5a1,1,0,0,0,0,2H21a1,1,0,0,1,1,1V16a1,1,0,0,1-1,1H15a1,1,0,0,0,0,2h6a3,3,0,0,0,3-3V3A3,3,0,0,0,21,0Z"/><circle cx="15.25" cy="5.357" r="1"/><circle cx="19.25" cy="5.357" r="1"/><circle cx="15.25" cy="8.857" r="1"/><circle cx="19.25" cy="8.857" r="1"/><circle cx="15.25" cy="12.357" r="1"/></svg>