<svg xmlns="http://www.w3.org/2000/svg" viewBox="0 0 24 24"><title>school-locker-2</title><path d="M22.5,0H1.5A1.5,1.5,0,0,0,0,1.5v21A1.5,1.5,0,0,0,1.5,24h21A1.5,1.5,0,0,0,24,22.5V1.5A1.5,1.5,0,0,0,22.5,0ZM20.16,10a1.2,1.2,0,1,1-1.2,1.2A1.2,1.2,0,0,1,20.16,10ZM7.8,10a1.2,1.2,0,1,1-1.2,1.2A1.2,1.2,0,0,1,7.8,10Zm.59,10.746H3.141a.75.75,0,0,1,0-1.5h5.25a.75.75,0,1,1,0,1.5Zm0-3H3.141a.75.75,0,1,1,0-1.5h5.25a.75.75,0,0,1,0,1.5ZM12.75,22a.75.75,0,0,1-1.5,0V2a.75.75,0,0,1,1.5,0Zm8-1.254H15.5a.75.75,0,1,1,0-1.5h5.25a.75.75,0,0,1,0,1.5Zm0-3H15.5a.75.75,0,0,1,0-1.5h5.25a.75.75,0,0,1,0,1.5Z"/></svg>