<svg xmlns="http://www.w3.org/2000/svg" viewBox="0 0 24 24"><title>school-teacher-art</title><path d="M21,0H12.5a1,1,0,0,0,0,2H21a1,1,0,0,1,1,1V16a1,1,0,0,1-1,1H15a1,1,0,0,0,0,2h6a3,3,0,0,0,3-3V3A3,3,0,0,0,21,0Z"/><path d="M16.355,14.97a.75.75,0,0,0,.415.976.77.77,0,0,0,.281.054.747.747,0,0,0,.7-.47l1.215-3.014a.5.5,0,0,1,.375-.3,1.9,1.9,0,0,0,1.432-1.156,3.891,3.891,0,0,0-.962-4.067.751.751,0,0,0-1.262.466A2.523,2.523,0,0,1,17.7,9a3.354,3.354,0,0,0-.427.514,1.622,1.622,0,0,0-.15,1.38,1.9,1.9,0,0,0,.343.613.5.5,0,0,1,.078.506Z"/><path d="M16.356,12.719a.75.75,0,1,0-1.371-.608c-.3.686-.556.6-.824.5a3.612,3.612,0,0,1-2.648-3.246c0-1.954,1.974-3.544,4.4-3.544a5.379,5.379,0,0,1,1.209.136A.75.75,0,0,0,17.462,4.5a6.858,6.858,0,0,0-1.547-.175c-3.255,0-5.9,2.263-5.9,5.044a5.083,5.083,0,0,0,3.651,4.661,2.342,2.342,0,0,0,.782.143A2.105,2.105,0,0,0,16.356,12.719Z"/><circle cx="13.417" cy="10.283" r="0.75"/><circle cx="14.167" cy="7.783" r="0.75"/><circle cx="16.667" cy="7.283" r="0.75"/><path d="M11,14.5a1,1,0,0,0-1,1v.25a.5.5,0,0,1-.5.5h-7a.5.5,0,0,1-.5-.5v-2A4.006,4.006,0,0,1,4.666,9.979.25.25,0,0,1,5,10.214V13.75a1,1,0,0,0,2,0V9.261a.5.5,0,0,1,.35-.477,4.5,4.5,0,1,0-4.119-.749.251.251,0,0,1-.037.418A6,6,0,0,0,0,13.75v3.5a1,1,0,0,0,1,1H2.121a.5.5,0,0,1,.5.458L3,23.312A.749.749,0,0,0,3.75,24h4.5A.749.749,0,0,0,9,23.312l.384-4.6a.5.5,0,0,1,.5-.458H11a1,1,0,0,0,1-1V15.5A1,1,0,0,0,11,14.5ZM3.6,3.818a.25.25,0,0,1,.367-.147A5.964,5.964,0,0,0,7,4.5a5.854,5.854,0,0,0,1.186-.124.249.249,0,0,1,.3.256A2.495,2.495,0,1,1,3.6,3.818Z"/></svg>