<svg xmlns="http://www.w3.org/2000/svg" viewBox="0 0 24 24"><title>school-locker-1</title><path d="M6.25,1H1.5A1.5,1.5,0,0,0,0,2.5v19A1.5,1.5,0,0,0,1.5,23H6.25a.5.5,0,0,0,.5-.5V1.5A.5.5,0,0,0,6.25,1ZM4,19.25H3a.75.75,0,0,1,0-1.5H4a.75.75,0,0,1,0,1.5Zm0-9.5H3a.75.75,0,0,1,0-1.5H4a.75.75,0,0,1,0,1.5Zm0-3.5H3a.75.75,0,0,1,0-1.5H4a.75.75,0,0,1,0,1.5Z"/><path d="M23.645.266a.745.745,0,0,0-.73-.032L21.8.789A2,2,0,0,1,20.91,1H8.75a.5.5,0,0,0-.5.5v21a.5.5,0,0,0,.5.5H20.91a2,2,0,0,1,.894.211l1.11.555A.75.75,0,0,0,24,23.1V.905A.748.748,0,0,0,23.645.266ZM12,19.25H11a.75.75,0,0,1,0-1.5h1a.75.75,0,0,1,0,1.5Zm0-9.5H11a.75.75,0,0,1,0-1.5h1a.75.75,0,0,1,0,1.5Zm0-3.5H11a.75.75,0,0,1,0-1.5h1a.75.75,0,0,1,0,1.5ZM20.5,20.5a.5.5,0,0,1-.5.5H15.5a.5.5,0,0,1-.5-.5v-10a.5.5,0,0,1,.5-.5H20a.5.5,0,0,1,.5.5Zm0-13A.5.5,0,0,1,20,8H15.5a.5.5,0,0,1-.5-.5v-4a.5.5,0,0,1,.5-.5H20a.5.5,0,0,1,.5.5Z"/></svg>