<svg xmlns="http://www.w3.org/2000/svg" viewBox="0 0 24 24"><title>school-exam-f-fail-alternate</title><path d="M19,0H5A2,2,0,0,0,3,2V22a2,2,0,0,0,2,2h8.638a2,2,0,0,0,1.281-.464l5.362-4.469A1.993,1.993,0,0,0,21,17.532V2A2,2,0,0,0,19,0Zm0,17.063a1,1,0,0,1-.36.769l-4.724,3.936a1,1,0,0,1-.64.232H5.5a.5.5,0,0,1-.5-.5V2.5A.5.5,0,0,1,5.5,2h13a.5.5,0,0,1,.5.5Z"/><path d="M15.5,13.5H8A.75.75,0,0,0,8,15h7.5a.75.75,0,0,0,0-1.5Z"/><path d="M11,17.5H8A.75.75,0,0,0,8,19h3a.75.75,0,0,0,0-1.5Z"/><path d="M16.25,4h-2A1.752,1.752,0,0,0,12.5,5.75V10A.75.75,0,0,0,14,10V9a.5.5,0,0,1,.5-.5h.75a.75.75,0,0,0,0-1.5H14.5a.5.5,0,0,1-.5-.5V6a.5.5,0,0,1,.5-.5h1.75a.75.75,0,0,0,0-1.5Z"/></svg>