<svg xmlns="http://www.w3.org/2000/svg" viewBox="0 0 24 24"><title>school-book</title><path d="M12.177,7.4a.417.417,0,0,0-.417.416V8.986a.417.417,0,1,0,.833,0V7.819A.417.417,0,0,0,12.177,7.4Z"/><path d="M7.51,18.486a.416.416,0,0,0-.416.416v.585a.417.417,0,1,0,.833,0V18.9A.418.418,0,0,0,7.51,18.486Z"/><path d="M20.15,4.04a.5.5,0,0,1-.4-.489V2a2,2,0,0,0-2-2H5.25a3,3,0,0,0-3,2.948c0,.017,0,18.052,0,18.052a3,3,0,0,0,3,3h14.5a2,2,0,0,0,2-2V6A2,2,0,0,0,20.15,4.04ZM4.25,3a1,1,0,0,1,1-1h12a.5.5,0,0,1,.5.5v1a.5.5,0,0,1-.5.5h-12A1,1,0,0,1,4.25,3ZM9.427,16.569a1.906,1.906,0,0,1-.4,1.167,1.908,1.908,0,0,1,.4,1.167v.583A1.92,1.92,0,0,1,7.51,21.4H6.344a.75.75,0,0,1-.75-.75V14.819a.75.75,0,0,1,.75-.75H7.51a1.92,1.92,0,0,1,1.917,1.917Zm4.666-4.083a.75.75,0,0,1-1.5,0V11.319a.417.417,0,0,0-.833,0v1.167a.75.75,0,0,1-1.5,0V7.819a1.917,1.917,0,0,1,3.833,0ZM18.01,19.9a.75.75,0,0,1,0,1.5,3.087,3.087,0,0,1-3.083-3.084V17.153a3.087,3.087,0,0,1,3.083-3.084.75.75,0,0,1,0,1.5,1.585,1.585,0,0,0-1.583,1.584v1.166A1.585,1.585,0,0,0,18.01,19.9Z"/><path d="M7.51,15.569a.416.416,0,0,0-.416.416v.585a.417.417,0,1,0,.833,0v-.583A.418.418,0,0,0,7.51,15.569Z"/></svg>