<svg xmlns="http://www.w3.org/2000/svg" viewBox="0 0 24 24"><title>school-exam-a-alternate</title><path d="M19,0H5A2,2,0,0,0,3,2V22a2,2,0,0,0,2,2h8.638a2,2,0,0,0,1.281-.464l5.362-4.469A1.993,1.993,0,0,0,21,17.532V2A2,2,0,0,0,19,0Zm0,17.063a1,1,0,0,1-.36.769l-4.724,3.936a1,1,0,0,1-.64.232H5.5a.5.5,0,0,1-.5-.5V2.5A.5.5,0,0,1,5.5,2h13a.5.5,0,0,1,.5.5Z"/><path d="M15.5,13.5H8A.75.75,0,0,0,8,15h7.5a.75.75,0,0,0,0-1.5Z"/><path d="M11,17.5H8A.75.75,0,0,0,8,19h3a.75.75,0,0,0,0-1.5Z"/><path d="M14.75,4A2.253,2.253,0,0,0,12.5,6.25V10A.75.75,0,0,0,14,10V9a.5.5,0,0,1,.5-.5H15a.5.5,0,0,1,.5.5v1A.75.75,0,0,0,17,10V6.25A2.253,2.253,0,0,0,14.75,4Zm.75,2.5A.5.5,0,0,1,15,7h-.5a.5.5,0,0,1-.5-.5V6.25a.75.75,0,0,1,1.5,0Z"/></svg>