<svg xmlns="http://www.w3.org/2000/svg" viewBox="0 0 24 24"><title>e-learning-book-smartphone</title><path d="M5,19.756V16.5a.5.5,0,0,0-.5-.5h-2a.5.5,0,0,1-.5-.5V5.5A.5.5,0,0,1,2.5,5h8a.5.5,0,0,1,.5.5,1,1,0,1,0,2,0V4A4,4,0,0,0,9,0H4A4,4,0,0,0,0,4V17a4,4,0,0,0,4,4h.941a.249.249,0,0,0,.232-.342A2.455,2.455,0,0,1,5,19.756Z"/><path d="M23.545,7.7a1.554,1.554,0,0,0-1.089-.429,12.59,12.59,0,0,0-6.893,1.885,1,1,0,0,1-1.126,0A12.593,12.593,0,0,0,7.544,7.274,1.554,1.554,0,0,0,6.455,7.7,1.512,1.512,0,0,0,6,8.778v11a1.51,1.51,0,0,0,1.474,1.494c5.093.125,6.687,2.275,6.7,2.3a1,1,0,0,0,1.646,0c.016-.022,1.61-2.172,6.7-2.3A1.51,1.51,0,0,0,24,19.778v-11A1.512,1.512,0,0,0,23.545,7.7ZM14,20.049a.5.5,0,0,1-.716.451,13.329,13.329,0,0,0-4.821-1.181.5.5,0,0,1-.463-.5V9.829a.5.5,0,0,1,.544-.5,8.957,8.957,0,0,1,5.288,1.882.5.5,0,0,1,.168.373Zm8-1.228a.5.5,0,0,1-.463.5A13.329,13.329,0,0,0,16.716,20.5.5.5,0,0,1,16,20.049V11.586a.5.5,0,0,1,.168-.373,8.954,8.954,0,0,1,5.288-1.882.5.5,0,0,1,.544.5Z"/></svg>