<svg xmlns="http://www.w3.org/2000/svg" viewBox="0 0 24 24"><title>e-learning-book-laptop</title><path d="M15.874,5.076a7.474,7.474,0,0,0-3.687.98.5.5,0,0,1-.529,0,7.471,7.471,0,0,0-3.687-.98,1.321,1.321,0,0,0-.91.345,1.261,1.261,0,0,0-.388.907v5.3a1.253,1.253,0,0,0,1.212,1.247c2.6.106,3.426,1.111,3.427,1.111A.75.75,0,0,0,12.526,14c.059-.07.916-1.019,3.436-1.122a1.253,1.253,0,0,0,1.211-1.247v-5.3a1.262,1.262,0,0,0-.389-.907A1.241,1.241,0,0,0,15.874,5.076Zm-4.7,6.27a.5.5,0,0,1-.663.473,8.39,8.39,0,0,0-1.888-.4.5.5,0,0,1-.449-.5V7.142a.5.5,0,0,1,.567-.5,5.212,5.212,0,0,1,2.209.739.5.5,0,0,1,.224.417Zm4.5-.422a.5.5,0,0,1-.449.5,8.388,8.388,0,0,0-1.889.4.5.5,0,0,1-.662-.473V7.8a.5.5,0,0,1,.222-.416,5.189,5.189,0,0,1,2.211-.741.5.5,0,0,1,.567.5Z"/><path d="M23.8,19.554c-.065-.089-1.829-2.5-2.389-3.254a.5.5,0,0,1-.076-.45,2.007,2.007,0,0,0,.092-.6V3.751a2,2,0,0,0-2-2h-15a2,2,0,0,0-2,2v11.5a1.989,1.989,0,0,0,.131.714.5.5,0,0,1-.062.472C1.907,17.248.821,18.72.169,19.613A1.718,1.718,0,0,0,.15,21.357a1.757,1.757,0,0,0,1.546.894H22.308a1.755,1.755,0,0,0,1.546-.894A1.737,1.737,0,0,0,23.8,19.554Zm-9.373.7h-5a.75.75,0,1,1,0-1.5h5a.75.75,0,0,1,0,1.5Zm4.854-5.146a.5.5,0,0,1-.353.146h-14a.5.5,0,0,1-.5-.5V4.251a.5.5,0,0,1,.5-.5h14a.5.5,0,0,1,.5.5v10.5A.5.5,0,0,1,19.277,15.105Z"/></svg>