<svg xmlns="http://www.w3.org/2000/svg" viewBox="0 0 24 24"><title>e-learning-monitor</title><path d="M14.348,20.182A.5.5,0,0,0,13.963,20h-3.93a.5.5,0,0,0-.385.181l-2.1,2.532a.5.5,0,0,0,.409.787h8.079a.5.5,0,0,0,.41-.787Z"/><path d="M22.5.5H1.5A1.5,1.5,0,0,0,0,2V17.5A1.5,1.5,0,0,0,1.5,19h21A1.5,1.5,0,0,0,24,17.5V2A1.5,1.5,0,0,0,22.5.5ZM22,15a.5.5,0,0,1-.5.5H2.5A.5.5,0,0,1,2,15V3a.5.5,0,0,1,.5-.5h19A.5.5,0,0,1,22,3Z"/><path d="M19.654,6.373l-7-2.779a.5.5,0,0,0-.369,0l-7,2.779a.5.5,0,0,0-.315.475v3.9a.75.75,0,0,0,1.5,0V8.428a.5.5,0,0,1,.666-.471L12.3,9.78a.468.468,0,0,0,.166.029.476.476,0,0,0,.166-.029l7-2.47a.5.5,0,0,0,.018-.937Z"/><path d="M16.3,9.546l-3.668,1.3a.5.5,0,0,1-.333,0L8.636,9.546a.5.5,0,0,0-.666.472v2.5a.5.5,0,0,0,.334.471l3,1.06a3.507,3.507,0,0,0,2.329,0l3-1.06a.5.5,0,0,0,.334-.471v-2.5a.5.5,0,0,0-.666-.472Z"/></svg>