<svg xmlns="http://www.w3.org/2000/svg" viewBox="0 0 24 24"><title>e-learning-share</title><path d="M19.5,8.751a2.747,2.747,0,0,0-3.289-2.7.5.5,0,0,1-.452-.137l-.835-.835a.5.5,0,0,1-.115-.53,3,3,0,1,0-5.618,0,.5.5,0,0,1-.115.53l-.835.835a.5.5,0,0,1-.452.137A2.752,2.752,0,1,0,9.774,7.661a.5.5,0,0,1,.105-.553l.645-.645a.5.5,0,0,1,.515-.12,3,3,0,0,0,1.922,0,.5.5,0,0,1,.515.12l.645.645a.5.5,0,0,1,.105.553A2.75,2.75,0,1,0,19.5,8.751Z"/><path d="M4.124,15.337a1.406,1.406,0,0,0-.458,1.824L5,19.377a.5.5,0,1,1-.857.516l-1.352-2.25a2.47,2.47,0,0,1,.125-2.484A.5.5,0,0,0,3,14.882V12a1.5,1.5,0,0,0-3,0v5.172a4.5,4.5,0,0,0,.986,2.811l2.664,3.33a.5.5,0,0,0,.39.187H8a.5.5,0,0,0,.5-.5V19.992a4.5,4.5,0,0,0-.757-2.5C5.856,15.526,5.266,14.576,4.124,15.337Z"/><path d="M22.5,10.5A1.5,1.5,0,0,0,21,12v2.881a.5.5,0,0,0,.084.277,2.47,2.47,0,0,1,.125,2.484l-1.352,2.25A.5.5,0,1,1,19,19.377l1.334-2.216a1.406,1.406,0,0,0-.458-1.824c-1.142-.761-1.732.189-3.619,2.157a4.5,4.5,0,0,0-.757,2.5V23a.5.5,0,0,0,.5.5h3.96a.5.5,0,0,0,.39-.187l2.664-3.33A4.5,4.5,0,0,0,24,17.173V12A1.5,1.5,0,0,0,22.5,10.5Z"/></svg>