<svg xmlns="http://www.w3.org/2000/svg" viewBox="0 0 24 24"><title>e-learning-smartphone</title><path d="M17,0H7A3,3,0,0,0,4,3V21a3,3,0,0,0,3,3H17a3,3,0,0,0,3-3V3A3,3,0,0,0,17,0ZM12,22.5a1,1,0,1,1,1-1A1,1,0,0,1,12,22.5ZM18,18a1,1,0,0,1-1,1H7a1,1,0,0,1-1-1V3.5a1,1,0,0,1,1-1H17a1,1,0,0,1,1,1Z"/><path d="M16.352,8.524,12.157,6.858a.5.5,0,0,0-.369,0L7.593,8.524a.5.5,0,0,0-.315.459v2.2a.5.5,0,1,0,1,0V10.049a.251.251,0,0,1,.334-.236l3.2,1.128a.5.5,0,0,0,.332,0L16.333,9.46a.5.5,0,0,0,.019-.936Z"/><path d="M14.2,11.115l-2.064.728a.5.5,0,0,1-.333,0l-2.065-.728a.5.5,0,0,0-.666.471v1.5a.5.5,0,0,0,.334.472l1.8.634a2.3,2.3,0,0,0,1.529,0l1.8-.634a.5.5,0,0,0,.334-.472v-1.5a.5.5,0,0,0-.666-.471Z"/></svg>