<svg xmlns="http://www.w3.org/2000/svg" viewBox="0 0 24 24"><title>e-learning-laptop-1</title><path d="M23.753,19.238l-2.386-4a.378.378,0,0,1-.024-.34,1.973,1.973,0,0,0,.156-.773v-10a2,2,0,0,0-2-2H4.5a2,2,0,0,0-2,2v10a1.98,1.98,0,0,0,.157.775.372.372,0,0,1-.025.337l-2.386,4a1.716,1.716,0,0,0-.018,1.744,1.755,1.755,0,0,0,1.546.894h20.45a1.755,1.755,0,0,0,1.546-.894A1.716,1.716,0,0,0,23.753,19.238Zm-9.253.638h-5a.75.75,0,0,1,0-1.5h5a.75.75,0,1,1,0,1.5Zm4.853-5.9a.5.5,0,0,1-.353.146H5a.5.5,0,0,1-.5-.5v-9a.5.5,0,0,1,.5-.5H19a.5.5,0,0,1,.5.5v9A.5.5,0,0,1,19.353,13.98Z"/><path d="M14.342,9.886l-2.105.7a.768.768,0,0,1-.474,0l-2.105-.7A.5.5,0,0,0,9,10.361V11.2a1,1,0,0,0,.667.943l1.834.648a1.51,1.51,0,0,0,1,0l1.833-.648A1,1,0,0,0,15,11.2v-.839a.5.5,0,0,0-.658-.475Z"/><path d="M16.658,7.152l-4.5-1.5a.5.5,0,0,0-.316,0l-4.5,1.5A.5.5,0,0,0,7,7.626v2.5a.5.5,0,0,0,1,0V8.667a.251.251,0,0,1,.329-.238L11.842,9.6a.493.493,0,0,0,.316,0l4.5-1.5a.5.5,0,0,0,0-.948Z"/></svg>