<svg xmlns="http://www.w3.org/2000/svg" viewBox="0 0 24 24"><title>e-learning-exchange</title><path d="M15.592,13.3l-2.736.911a1.152,1.152,0,0,1-.711,0L9.408,13.3a.491.491,0,0,0-.45.068.5.5,0,0,0-.208.406v1.091a1.154,1.154,0,0,0,.768,1.085l2.382.841a1.813,1.813,0,0,0,1.2,0l2.384-.842a1.152,1.152,0,0,0,.767-1.084V13.774a.5.5,0,0,0-.208-.406A.492.492,0,0,0,15.592,13.3Z"/><path d="M18.85,10.544a.5.5,0,0,0-.342-.474l-5.85-1.95a.5.5,0,0,0-.316,0l-5.85,1.95a.866.866,0,0,0-.592.821v2.9a.75.75,0,0,0,1.5,0V11.668a.251.251,0,0,1,.329-.238l4.613,1.538a.493.493,0,0,0,.316,0l5.85-1.95A.5.5,0,0,0,18.85,10.544Z"/><path d="M2,12A10,10,0,0,1,17.867,3.9a.5.5,0,0,1,.06.758L16.793,5.794A1,1,0,0,0,17.5,7.5h4a1,1,0,0,0,1-1v-4a1,1,0,0,0-1.707-.707l-.724.725a.5.5,0,0,1-.663.039A12,12,0,0,0,0,12a1,1,0,0,0,2,0Z"/><path d="M23,11a1,1,0,0,0-1,1A10,10,0,0,1,6.133,20.1a.5.5,0,0,1-.06-.758l1.134-1.135A1,1,0,0,0,6.5,16.5h-4a1,1,0,0,0-1,1v4a1,1,0,0,0,1.707.707l.725-.724a.5.5,0,0,1,.662-.039A12,12,0,0,0,24,12,1,1,0,0,0,23,11Z"/></svg>