<svg xmlns="http://www.w3.org/2000/svg" viewBox="0 0 24 24"><title>e-learning-laptop</title><path d="M3.5,16.5a1,1,0,0,0,1-1V6a1,1,0,0,1,1-1h13a1,1,0,0,1,1,1v9.5a1,1,0,0,0,2,0V6a3,3,0,0,0-3-3H5.5a3,3,0,0,0-3,3v9.5A1,1,0,0,0,3.5,16.5Z"/><path d="M23.5,18H.5a.5.5,0,0,0-.5.5A2.5,2.5,0,0,0,2.5,21h19A2.5,2.5,0,0,0,24,18.5.5.5,0,0,0,23.5,18Z"/><path d="M14.25,13.251A1.75,1.75,0,1,0,16,11.5a1.634,1.634,0,0,0-.222.015.5.5,0,0,1-.417-.143l-.921-.921a.5.5,0,0,1-.112-.537,2.5,2.5,0,1,0-4.656,0,.5.5,0,0,1-.112.537l-.921.921a.5.5,0,0,1-.417.143A1.634,1.634,0,0,0,8,11.5a1.752,1.752,0,1,0,1.69,1.3.5.5,0,0,1,.13-.484l.834-.835a.5.5,0,0,1,.519-.118,2.513,2.513,0,0,0,1.654,0,.5.5,0,0,1,.519.118l.834.835a.5.5,0,0,1,.13.484A1.743,1.743,0,0,0,14.25,13.251Z"/></svg>