<svg xmlns="http://www.w3.org/2000/svg" viewBox="0 0 24 24"><title>e-learning-laptop-math</title><path d="M12.25,13.751A.75.75,0,0,0,13,13v-.25a.5.5,0,0,1,.5-.5h.25a.75.75,0,0,0,0-1.5H13.5a.5.5,0,0,1-.5-.5V10a.75.75,0,1,0-1.5,0v.25a.5.5,0,0,1-.5.5h-.25a.75.75,0,0,0,0,1.5H11a.5.5,0,0,1,.5.5V13A.75.75,0,0,0,12.25,13.751Z"/><path d="M15.25,15.251h4a.75.75,0,0,0,0-1.5H18.5a.5.5,0,0,1-.5-.5v-4.5a1,1,0,0,0-1-1,1.345,1.345,0,0,0-.957.4L14.72,9.471a.75.75,0,0,0,1.06,1.061l.293-.293a.25.25,0,0,1,.427.177v2.835a.5.5,0,0,1-.5.5h-.75a.75.75,0,0,0,0,1.5Z"/><path d="M8.4,12.7A2.75,2.75,0,1,0,4,10.5a.75.75,0,0,0,1.5,0,1.25,1.25,0,1,1,2,1L4.3,13.9a.75.75,0,0,0,.45,1.35h4a.75.75,0,0,0,0-1.5h-1a.249.249,0,0,1-.237-.17A.251.251,0,0,1,7.6,13.3Z"/><path d="M2,16.5a1,1,0,0,0,1-1V6A1,1,0,0,1,4,5H20a1,1,0,0,1,1,1v9.5a1,1,0,0,0,2,0V6a3,3,0,0,0-3-3H4A3,3,0,0,0,1,6v9.5A1,1,0,0,0,2,16.5Z"/><path d="M23.5,18H.5a.5.5,0,0,0-.5.5A2.5,2.5,0,0,0,2.5,21h19A2.5,2.5,0,0,0,24,18.5.5.5,0,0,0,23.5,18Z"/></svg>