<svg xmlns="http://www.w3.org/2000/svg" viewBox="0 0 24 24"><title>study-notebook-maths</title><path d="M8.294,22h-5.5a.5.5,0,0,1-.5-.5V5a.5.5,0,0,1,.5-.5h1a.5.5,0,0,1,.5.5v.25a1,1,0,0,0,2,0V5a.5.5,0,0,1,.5-.5h3a.5.5,0,0,1,.5.5v.25a1,1,0,1,0,2,0V5a.5.5,0,0,1,.5-.5h3a.5.5,0,0,1,.5.5v.25a1,1,0,1,0,2,0V5a.5.5,0,0,1,.5-.5h1a.5.5,0,0,1,.5.5V8.5a1,1,0,1,0,2,0v-4a2,2,0,0,0-2-2h-1.5a.5.5,0,0,1-.5-.5V1a1,1,0,0,0-2,0V2a.5.5,0,0,1-.5.5h-3a.5.5,0,0,1-.5-.5V1a1,1,0,1,0-2,0V2a.5.5,0,0,1-.5.5h-3a.5.5,0,0,1-.5-.5V1a1,1,0,1,0-2,0V2a.5.5,0,0,1-.5.5h-1.5a2,2,0,0,0-2,2V22a2,2,0,0,0,2,2h6a1,1,0,0,0,0-2Z"/><path d="M22.933,11.766a2.619,2.619,0,0,0-3.7,0l-6.5,6.5a.5.5,0,0,0,0,.707l3,3a.5.5,0,0,0,.707,0l6.5-6.5A2.62,2.62,0,0,0,22.933,11.766Z"/><path d="M11.768,20.132a.25.25,0,0,0-.422.127L10.718,23.4a.5.5,0,0,0,.136.451.5.5,0,0,0,.452.137l3.143-.629a.247.247,0,0,0,.19-.173.249.249,0,0,0-.062-.249Z"/><path d="M7.574,11.282a2.055,2.055,0,0,0,.607-1.465,2.2,2.2,0,0,0-4.292-.7A.75.75,0,0,0,5.311,9.6a.7.7,0,0,1,1.37.221.571.571,0,0,1-.167.4L3.9,12.834a.75.75,0,0,0,.53,1.281h3a.75.75,0,0,0,0-1.5H6.845a.25.25,0,0,1-.177-.427Z"/><path d="M13.044,12.5a.75.75,0,0,0,0,1.5h2a.75.75,0,0,0,0-1.5.249.249,0,0,1-.25-.25v-3.5a1.25,1.25,0,0,0-2-1l-1.2.9a.75.75,0,0,0,.9,1.2l.8-.6v3A.249.249,0,0,1,13.044,12.5Z"/><path d="M11.044,12.115a.75.75,0,0,0,0-1.5.25.25,0,0,1-.25-.25.75.75,0,1,0-1.5,0,.25.25,0,0,1-.25.25.75.75,0,0,0,0,1.5.25.25,0,0,1,.25.25.75.75,0,0,0,1.5,0A.25.25,0,0,1,11.044,12.115Z"/></svg>