<svg xmlns="http://www.w3.org/2000/svg" viewBox="0 0 24 24"><title>study-brain</title><path d="M9.709,17.482a1,1,0,0,1-1.153-.818,2.106,2.106,0,0,0-1.72-1.719,1,1,0,0,1,.338-1.971,4.106,4.106,0,0,1,3.352,3.354A1,1,0,0,1,9.709,17.482Z"/><path d="M6.019,10.213a1,1,0,0,1,.817-1.154A2.109,2.109,0,0,0,8.555,7.344a1,1,0,1,1,1.97.343A4.112,4.112,0,0,1,7.172,11.03,1,1,0,0,1,6.019,10.213Z"/><path d="M14.29,17.483a1,1,0,0,1-.817-1.154,4.111,4.111,0,0,1,3.341-3.353,1,1,0,1,1,.344,1.97,2.108,2.108,0,0,0-1.715,1.72A1,1,0,0,1,14.29,17.483Z"/><path d="M16.914,11.043a4.093,4.093,0,0,1-3.439-3.358,1,1,0,0,1,1.97-.342,2.1,2.1,0,0,0,1.764,1.722,1,1,0,0,1-.295,1.978Z"/><path d="M17.669,22.849a2.919,2.919,0,0,1-4.42.264.5.5,0,0,0-.452-.145,4.38,4.38,0,0,1-1.594,0,.5.5,0,0,0-.452.145,2.915,2.915,0,0,1-4.912-1.268.5.5,0,0,0-.375-.361,4.577,4.577,0,0,1-3.4-5.641.5.5,0,0,0-.22-.557,3.842,3.842,0,0,1,0-6.569.5.5,0,0,0,.22-.557A4.578,4.578,0,0,1,5.463,2.518a.5.5,0,0,0,.376-.36,2.857,2.857,0,0,1,.492-1,2.915,2.915,0,0,1,4.718.1.5.5,0,0,0,.472.211,3.937,3.937,0,0,1,.958,0,.5.5,0,0,0,.472-.211,2.915,2.915,0,0,1,4.718-.1,2.87,2.87,0,0,1,.492,1,.5.5,0,0,0,.375.36A4.578,4.578,0,0,1,21.931,8.16a.5.5,0,0,0,.22.557,3.842,3.842,0,0,1,0,6.569.5.5,0,0,0-.22.557,4.577,4.577,0,0,1-3.395,5.641.5.5,0,0,0-.375.361A2.875,2.875,0,0,1,17.669,22.849Zm-4.148-2.188a1,1,0,0,1,.954.7.915.915,0,0,0,1.6.277.886.886,0,0,0,.143-.793,1,1,0,0,1,.2-.908,1.017,1.017,0,0,1,.858-.355,2.516,2.516,0,0,0,2.489-1.308,2.554,2.554,0,0,0-.218-2.816,1,1,0,0,1,.72-1.606,1.855,1.855,0,0,0,0-3.7,1,1,0,0,1-.72-1.606,2.553,2.553,0,0,0,.217-2.817A2.517,2.517,0,0,0,17.273,4.42,1,1,0,0,1,16.22,3.157a.885.885,0,0,0-.142-.792A.924.924,0,0,0,15.348,2a.911.911,0,0,0-.912.868,1,1,0,0,1-1.5.817,1.9,1.9,0,0,0-1.872,0,1,1,0,0,1-1.5-.817A.911.911,0,0,0,8.652,2a.921.921,0,0,0-.73.363.889.889,0,0,0-.142.793A1,1,0,0,1,6.727,4.42,2.507,2.507,0,0,0,4.239,5.727a2.553,2.553,0,0,0,.217,2.817,1,1,0,0,1-.72,1.606,1.855,1.855,0,0,0,0,3.7,1,1,0,0,1,.72,1.606,2.554,2.554,0,0,0-.218,2.816,2.506,2.506,0,0,0,2.489,1.308,1.013,1.013,0,0,1,.858.355,1,1,0,0,1,.2.908.886.886,0,0,0,.143.793.947.947,0,0,0,1.6-.277,1,1,0,0,1,1.454-.567,2.393,2.393,0,0,0,2.042,0A1,1,0,0,1,13.521,20.661Z"/><path d="M12,14.264a1,1,0,0,1-1-1V10.718a1,1,0,1,1,2,0v2.546A1,1,0,0,1,12,14.264Z"/></svg>