<svg xmlns="http://www.w3.org/2000/svg" viewBox="0 0 24 24"><title>study-owl</title><circle cx="9.003" cy="10.497" r="1"/><circle cx="15.003" cy="10.497" r="1"/><path d="M19.007,11.568a.5.5,0,0,1-.293-.529,3.75,3.75,0,0,0-1.285-3.4.5.5,0,0,1-.176-.381V5.85a.25.25,0,0,0-.342-.232L12.905,7.193a2.49,2.49,0,0,1-1.749.03L7.086,5.781a.249.249,0,0,0-.333.235V7.259a.5.5,0,0,1-.176.381A3.743,3.743,0,0,0,5.253,10.5a3.687,3.687,0,0,0,.039.539.5.5,0,0,1-.294.53A3.755,3.755,0,0,0,2.75,15v2.25a5.76,5.76,0,0,0,3.988,5.474.25.25,0,0,0,.284-.378A5.964,5.964,0,0,1,6,19a.5.5,0,0,1,1,0,5,5,0,0,0,10,0,.5.5,0,0,1,1,0,5.964,5.964,0,0,1-1.022,3.346.25.25,0,0,0,.284.378,5.76,5.76,0,0,0,3.988-5.474V15A3.755,3.755,0,0,0,19.007,11.568ZM9,12.747a2.25,2.25,0,1,1,2.25-2.25A2.253,2.253,0,0,1,9,12.747Zm4.172,1.334-.634.929a.677.677,0,0,1-1.076,0l-.633-.928a.25.25,0,0,1,.078-.356,3.758,3.758,0,0,0,.9-.75.25.25,0,0,1,.376,0,3.778,3.778,0,0,0,.9.75.251.251,0,0,1,.079.356ZM15,12.747a2.25,2.25,0,1,1,2.25-2.25A2.253,2.253,0,0,1,15,12.747Z"/><path d="M4.75,7.434a1,1,0,0,0,1-1V4.6a.247.247,0,0,1,.106-.2.25.25,0,0,1,.228-.032L11.489,6.28a1.494,1.494,0,0,0,1.05-.017l6.052-2.381a.75.75,0,0,0,0-1.4L12.53.105A1.5,1.5,0,0,0,11.48.088l-7.4,2.625a.5.5,0,0,0-.333.471v3.25A1,1,0,0,0,4.75,7.434Z"/></svg>