<svg xmlns="http://www.w3.org/2000/svg" viewBox="0 0 24 24"><title>study-desk</title><path d="M24,14.108a1,1,0,0,0-1-1H1a1,1,0,0,0,0,2h.42a.5.5,0,0,1,.491.6L.77,21.411a1,1,0,1,0,1.96.393L3.989,15.51a.5.5,0,0,1,.491-.4H19.52a.5.5,0,0,1,.491.4L21.27,21.8a1,1,0,1,0,1.96-.393l-1.141-5.705a.5.5,0,0,1,.491-.6H23A1,1,0,0,0,24,14.108Z"/><path d="M21.121,10.358h-.75a.25.25,0,0,1-.25-.25V5.621a3.767,3.767,0,0,0-3.764-3.763,1,1,0,0,0-.347.062,3.6,3.6,0,0,0-4.364.463.5.5,0,0,0,0,.707l4.243,4.242a.5.5,0,0,0,.707,0,3.5,3.5,0,0,0,.988-2.977,1.759,1.759,0,0,1,.537,1.266v4.487a.25.25,0,0,1-.25.25h-.75a1,1,0,0,0,0,2h4a1,1,0,0,0,0-2Z"/><path d="M2.75,12.108H10a.5.5,0,0,0,.5-.5v-2a.5.5,0,0,0-.5-.5H2.75a1.5,1.5,0,0,0,0,3Z"/><path d="M2.75,8.108H10a.5.5,0,0,0,.5-.5v-2a.5.5,0,0,0-.5-.5H2.75a1.5,1.5,0,0,0,0,3Z"/></svg>