<svg xmlns="http://www.w3.org/2000/svg" viewBox="0 0 24 24"><title>study-light-idea</title><path d="M12,4A8,8,0,0,0,8.479,19.184a.5.5,0,0,1,.28.438,3.232,3.232,0,0,0,1.869,2.8A.645.645,0,0,1,11,23a1,1,0,1,0,2,0,.646.646,0,0,1,.373-.585,3.253,3.253,0,0,0,1.874-2.806.5.5,0,0,1,.279-.429A8,8,0,0,0,12,4Zm-2,8.5a.25.25,0,0,1-.25.25h-.5A.75.75,0,1,1,10,12Zm2.5,4.979a.5.5,0,0,1-1,0V14.751a.5.5,0,1,1,1,0Zm1.848.043a.254.254,0,0,1-.236-.022A.248.248,0,0,1,14,17.293V14.751a.5.5,0,0,1,.5-.5h.25A2.25,2.25,0,1,0,12.5,12v.25a.5.5,0,0,1-1,0V12a2.25,2.25,0,1,0-2.25,2.25H9.5a.5.5,0,0,1,.5.5v2.542a.248.248,0,0,1-.112.208.251.251,0,0,1-.236.022,6,6,0,1,1,4.7,0ZM14,12.5V12a.75.75,0,1,1,.75.75h-.5A.25.25,0,0,1,14,12.5Z"/><path d="M2,11H1a1,1,0,0,0,0,2H2a1,1,0,0,0,0-2Z"/><path d="M4.222,5.637A1,1,0,0,0,5.636,4.223l-.707-.707A1,1,0,0,0,3.515,4.93Z"/><path d="M12,3a1,1,0,0,0,1-1V1a1,1,0,0,0-2,0V2A1,1,0,0,0,12,3Z"/><path d="M19.071,3.516l-.707.707a1,1,0,1,0,1.414,1.414l.707-.707a1,1,0,0,0-1.414-1.414Z"/><path d="M23,11H22a1,1,0,0,0,0,2h1a1,1,0,0,0,0-2Z"/><path d="M19.778,18.366a1,1,0,1,0-1.414,1.414l.707.707a1,1,0,0,0,1.414-1.414Z"/><path d="M4.222,18.366l-.707.707a1,1,0,1,0,1.414,1.414l.707-.707a1,1,0,0,0-1.414-1.414Z"/></svg>