<svg xmlns="http://www.w3.org/2000/svg" viewBox="0 0 24 24"><title>study-exam-math</title><path d="M20.914,4.5,17,.586A2.011,2.011,0,0,0,15.586,0H4.5a2,2,0,0,0-2,2V22a2,2,0,0,0,2,2h15a2,2,0,0,0,2-2V5.914A1.986,1.986,0,0,0,20.914,4.5ZM19.5,21.5a.5.5,0,0,1-.5.5H5a.5.5,0,0,1-.5-.5V2.5A.5.5,0,0,1,5,2H15.172a1,1,0,0,1,.707.293l3.328,3.328a1,1,0,0,1,.293.707Z"/><path d="M8.5,7.5v.75a.75.75,0,0,0,1.5,0V7.5a.5.5,0,0,1,.5-.5h.75a.75.75,0,0,0,0-1.5H10.5A.5.5,0,0,1,10,5V4.25a.75.75,0,0,0-1.5,0V5a.5.5,0,0,1-.5.5H7.25a.75.75,0,0,0,0,1.5H8A.5.5,0,0,1,8.5,7.5Z"/><path d="M18.031,10.452A.75.75,0,0,0,16.97,9.391l-.531.531a.5.5,0,0,1-.707,0l-.53-.531a.75.75,0,0,0-1.061,1.061l.531.53a.5.5,0,0,1,0,.707l-.531.531A.75.75,0,0,0,15.2,13.28l.53-.53a.5.5,0,0,1,.707,0l.531.53a.75.75,0,1,0,1.061-1.06l-.531-.531a.5.5,0,0,1,0-.707Z"/><path d="M12.25,16.5h-4a.75.75,0,0,0,0,1.5h4a.75.75,0,0,0,0-1.5Z"/><circle cx="10.25" cy="15" r="1"/><circle cx="10.25" cy="19.5" r="1"/></svg>