<svg xmlns="http://www.w3.org/2000/svg" viewBox="0 0 24 24"><title>study-book</title><path d="M9.076,4.392A21.161,21.161,0,0,0,4,3.381a.759.759,0,0,0-.819.674.748.748,0,0,0,.672.819,19.6,19.6,0,0,1,4.74.938.75.75,0,1,0,.482-1.42Z"/><path d="M9.076,8.023A21.156,21.156,0,0,0,4,7.013a.75.75,0,0,0-.147,1.493,19.592,19.592,0,0,1,4.74.937.75.75,0,1,0,.482-1.42Z"/><path d="M9.076,11.655A21.21,21.21,0,0,0,4,10.644a.757.757,0,0,0-.819.674.75.75,0,0,0,.672.82,19.552,19.552,0,0,1,4.74.937.75.75,0,1,0,.482-1.42Z"/><path d="M19.5,3.214a22.56,22.56,0,0,0-5.075,1.178.75.75,0,1,0,.482,1.42,21.169,21.169,0,0,1,4.74-1.105A.75.75,0,0,0,19.5,3.214Z"/><path d="M19.5,6.845a22.63,22.63,0,0,0-5.075,1.178.75.75,0,1,0,.482,1.42,21.239,21.239,0,0,1,4.74-1.105A.75.75,0,0,0,19.5,6.845Z"/><path d="M19.5,10.477a22.522,22.522,0,0,0-5.075,1.178.75.75,0,1,0,.482,1.42,21.157,21.157,0,0,1,4.74-1.1.75.75,0,0,0-.147-1.493Z"/><path d="M15,15.621a.611.611,0,0,0-.811-.577c-.349.121-.677.251-.98.391a.5.5,0,0,1-.709-.455V4.008c0-.761,3.274-2.336,9.277-2.506a.288.288,0,0,1,.167.063A.17.17,0,0,1,22,1.688V13.676a.218.218,0,0,1-.233.183l-.521.018a.78.78,0,0,0-.746.78.722.722,0,0,0,.753.721c.182-.008.367-.015.555-.02A1.7,1.7,0,0,0,23.5,13.676V1.688a1.66,1.66,0,0,0-.511-1.2A1.707,1.707,0,0,0,21.734,0c-3.807.107-7.828.85-9.683,2.249a.5.5,0,0,1-.6,0C9.593.853,5.573.11,1.766,0A1.709,1.709,0,0,0,.511.49,1.66,1.66,0,0,0,0,1.688V13.676a1.7,1.7,0,0,0,1.692,1.682C7.715,15.524,11,17.1,11,17.865a.75.75,0,0,0,1.5,0c0-.334.627-.823,1.835-1.281A1.032,1.032,0,0,0,15,15.621Zm-4-.641a.5.5,0,0,1-.709.455,23.919,23.919,0,0,0-8.558-1.576.218.218,0,0,1-.233-.183V1.688a.17.17,0,0,1,.056-.123.226.226,0,0,1,.16-.063h.007C7.726,1.672,11,3.247,11,4.008Z"/><path d="M21.253,20H19.5a.5.5,0,0,1-.5-.5v-4.25a1.25,1.25,0,0,0-2.5,0v6.466a.25.25,0,0,1-.454.145l-1.067-1.5a1.05,1.05,0,1,0-1.858.978l1.26,2.395a.5.5,0,0,0,.443.267H23.5a.5.5,0,0,0,.5-.5v-.6A2.887,2.887,0,0,0,21.253,20Z"/></svg>