<svg xmlns="http://www.w3.org/2000/svg" viewBox="0 0 24 24"><title>study-brain-1</title><path d="M18.108,13.262a1,1,0,0,0,1-1,3.445,3.445,0,0,0-6.89,0,1,1,0,0,0,2,0,1.445,1.445,0,0,1,2.89,0A1,1,0,0,0,18.108,13.262Z"/><path d="M21.725,9.19a.5.5,0,0,1-.278-.345,4.439,4.439,0,0,0-3.113-3.286.5.5,0,0,1-.349-.36A4.923,4.923,0,0,0,13.218,1.48H10.782A4.923,4.923,0,0,0,6.015,5.2a.5.5,0,0,1-.349.36A4.441,4.441,0,0,0,2.6,8.664a.5.5,0,0,1-.317.341,3.455,3.455,0,0,0,1.107,6.7H7.133a.5.5,0,0,1,.462.309,3.452,3.452,0,0,0,3.187,2.137h2.7a.5.5,0,0,1,.488.392l.7,3.191a1,1,0,1,0,1.953-.428l-.957-4.369a1,1,0,0,0-.976-.786h-3.9a1.446,1.446,0,0,1-.479-2.81,1,1,0,0,0-.662-1.888A3.443,3.443,0,0,0,7.6,13.4a.5.5,0,0,1-.463.31H3.388a1.446,1.446,0,0,1,.057-2.891,1,1,0,0,0,1-1A2.426,2.426,0,0,1,7.458,7.465a.5.5,0,0,1,.279.785,3.413,3.413,0,0,0-.655,1.611,1,1,0,0,0,.864,1.12.941.941,0,0,0,.129.008,1,1,0,0,0,.991-.871A1.448,1.448,0,0,1,10.5,8.86h.761a3.45,3.45,0,0,0,3.445-3.446,1,1,0,1,0-2,0A1.447,1.447,0,0,1,11.261,6.86H10.5a.8.8,0,0,1-.556-.225A4.418,4.418,0,0,0,8.485,5.7.5.5,0,0,1,8.23,4.99a2.913,2.913,0,0,1,2.552-1.51h2.436a2.916,2.916,0,0,1,2.913,2.913,1,1,0,0,0,1,1,2.437,2.437,0,0,1,2.424,2.473,1,1,0,0,0,.834.986A1.923,1.923,0,0,1,22,12.752v1.467a1.937,1.937,0,0,1-1.935,1.935,1,1,0,0,0-1,1,.945.945,0,0,1-.879.944,1,1,0,0,0-.894,1.221l.56,2.429a1,1,0,0,0,.973.775,1.03,1.03,0,0,0,.226-.025,1,1,0,0,0,.75-1.2l-.269-1.166a.5.5,0,0,1,.21-.528,3,3,0,0,0,1.093-1.32A.5.5,0,0,1,21.157,18,3.943,3.943,0,0,0,24,14.219V12.752A3.914,3.914,0,0,0,21.725,9.19Z"/></svg>