<svg xmlns="http://www.w3.org/2000/svg" viewBox="0 0 24 24"><title>study-maths-brain</title><path d="M18.523,12.435a.994.994,0,0,0-1.1.891,6.139,6.139,0,0,1-2.749,4.418,1,1,0,0,0-.409.806V23a1,1,0,0,0,2,0V19.279a.5.5,0,0,1,.179-.383,7.937,7.937,0,0,0,2.968-5.362A1,1,0,0,0,18.523,12.435Z"/><path d="M8.325,3.22C3.006,4.356,1.694,9.428.072,14.609A1.5,1.5,0,0,0,1.5,16.567h.61a.5.5,0,0,1,.5.5v.978a3.484,3.484,0,0,0,2.97,3.441.5.5,0,0,1,.428.494V23a1,1,0,0,0,2,0V20.523a1,1,0,0,0-1-1H6.088a1.48,1.48,0,0,1-1.479-1.478V15.567a1,1,0,0,0-1-1H2.866a.5.5,0,0,1-.477-.65c1.227-3.906,2.427-7.9,6.354-8.741A1,1,0,0,0,8.325,3.22Z"/><path d="M23,7.5H18a1,1,0,1,0,0,2h5a1,1,0,1,0,0-2Z"/><circle cx="20.5" cy="6.001" r="1"/><circle cx="20.5" cy="11.001" r="1"/><path d="M15.5,6V5a.5.5,0,0,1,.5-.5h1a1,1,0,0,0,0-2H16a.5.5,0,0,1-.5-.5V1a1,1,0,1,0-2,0V2a.5.5,0,0,1-.5.5H12a1,1,0,1,0,0,2h1a.5.5,0,0,1,.5.5V6a1,1,0,1,0,2,0Z"/></svg>