<svg xmlns="http://www.w3.org/2000/svg" viewBox="0 0 24 24"><title>audio-book-music</title><path d="M12.75,9.541a1.752,1.752,0,0,0,1.75-1.75V2.87c0-.12.086-.224.295-.269L18.2,1.5a.253.253,0,0,1,.207.054.245.245,0,0,1,.09.192V3.791a.25.25,0,0,1-.25.25A1.75,1.75,0,1,0,20,5.791V1.751A1.75,1.75,0,0,0,17.711.086l-3.5,1.133A1.75,1.75,0,0,0,13,2.884V5.791a.25.25,0,0,1-.25.25,1.75,1.75,0,0,0,0,3.5Z"/><path d="M5.93,12.951A1.752,1.752,0,0,0,7.68,11.2V7.288a.25.25,0,0,1,.381-.213l.792.486a.75.75,0,1,0,.785-1.278L7.322,4.862A.75.75,0,0,0,6.18,5.5V9.2a.25.25,0,0,1-.25.25,1.75,1.75,0,0,0,0,3.5Z"/><path d="M23.549,6.439a1.478,1.478,0,0,0-1.083-.433,1,1,0,0,0-.724,1.67A1,1,0,0,1,22,8.347v9.691a.5.5,0,0,1-.475.5,18.324,18.324,0,0,0-7.79,1.895A.5.5,0,0,1,13,19.991V13a1,1,0,1,0-2,0v6.99a.5.5,0,0,1-.735.441,18.319,18.319,0,0,0-7.789-1.895.5.5,0,0,1-.476-.5v-9.5a.5.5,0,0,1,.528-.5c.353.019.7.045,1.038.078a1,1,0,1,0,.194-1.99c-.715-.07-1.464-.112-2.226-.125A1.509,1.509,0,0,0,0,7.51v11.5a1.508,1.508,0,0,0,1.482,1.495c4.681.078,7.32,1.284,8.629,2.163a6.015,6.015,0,0,1,1.143,1,1,1,0,0,0,1.493,0,6.009,6.009,0,0,1,1.142-1c1.31-.879,3.948-2.085,8.629-2.163A1.508,1.508,0,0,0,24,19.01V7.51A1.493,1.493,0,0,0,23.549,6.439Z"/></svg>