<svg xmlns="http://www.w3.org/2000/svg" viewBox="0 0 24 24"><title>audio-book-volume-low</title><path d="M10.25,9.642h-1a1,1,0,0,0-1,1v2a1,1,0,0,0,1,1h1l1.688,1.351a.5.5,0,0,0,.812-.391V8.683a.5.5,0,0,0-.812-.391Z"/><path d="M14.487,13.94a.749.749,0,0,1,0-1.06,1.749,1.749,0,0,0,0-2.475.75.75,0,0,1,1.061-1.06,3.248,3.248,0,0,1,0,4.595A.749.749,0,0,1,14.487,13.94Z"/><path d="M24,2A2.024,2.024,0,0,0,23.385.555,2.031,2.031,0,0,0,21.943,0c-4.931.185-7.813,1.656-9.338,2.815a1,1,0,0,1-1.21,0C9.871,1.659,6.989.188,2.057,0A2.031,2.031,0,0,0,.615.555,2.024,2.024,0,0,0,0,2V18.216a2,2,0,0,0,1.945,2c3.235.117,7.148.929,9.223,3.4a1.082,1.082,0,0,0,1.664,0c2.075-2.467,5.988-3.279,9.223-3.4a2,2,0,0,0,1.945-2ZM21.982,17.739a.5.5,0,0,1-.473.5c-4.667.253-7.424,1.67-8.9,2.8a1,1,0,0,1-1.211,0c-1.479-1.124-4.236-2.543-8.9-2.8a.5.5,0,0,1-.473-.5L2,2.527a.5.5,0,0,1,.53-.5c4.953.3,7.347,2.032,8.227,2.87.5.476.612.889,1.242.889s.743-.413,1.242-.889c.88-.838,3.274-2.574,8.227-2.87a.5.5,0,0,1,.53.5Z"/></svg>