<svg xmlns="http://www.w3.org/2000/svg" viewBox="0 0 24 24"><title>audio-book-headphones-person</title><path d="M20.029,12.613a1.754,1.754,0,0,0-1.57-.249l-6.15,2a.989.989,0,0,1-.618,0l-6.15-2a1.753,1.753,0,0,0-1.57.249,1.731,1.731,0,0,0-.721,1.415v5.9a1.745,1.745,0,0,0,1.209,1.664l7.31,2.376a.759.759,0,0,0,.462,0l7.311-2.376a1.745,1.745,0,0,0,1.208-1.664v-5.9A1.731,1.731,0,0,0,20.029,12.613ZM18,16.624a.5.5,0,0,1-.362.481l-2.5.714a.5.5,0,0,1-.638-.48v-.71a.5.5,0,0,1,.363-.481l2.5-.714a.5.5,0,0,1,.637.48Z"/><circle cx="12" cy="7.501" r="3.5"/><path d="M7,11a.75.75,0,0,0,.75-.75v-4.5a4.25,4.25,0,0,1,8.5,0v4.5A.75.75,0,0,0,17,11a2.75,2.75,0,0,0,1.035-5.3.5.5,0,0,1-.31-.423,5.744,5.744,0,0,0-11.45,0,.5.5,0,0,1-.31.423A2.75,2.75,0,0,0,7,11Z"/></svg>