<svg xmlns="http://www.w3.org/2000/svg" viewBox="0 0 24 24"><title>audio-book-headphones</title><path d="M21.265,10.857a.5.5,0,0,1-.3-.416,9,9,0,0,0-17.928,0,.5.5,0,0,1-.3.416,4.5,4.5,0,0,0,1.105,8.59.922.922,0,0,0,.148.011,1.017,1.017,0,0,0,.666-.247A1,1,0,0,0,5,18.455V11.246a7,7,0,0,1,14,0v7.209a1,1,0,0,0,.346.756,1.017,1.017,0,0,0,.666.247.934.934,0,0,0,.149-.011,4.5,4.5,0,0,0,1.1-8.59Z"/><path d="M16.081,10.652a8.686,8.686,0,0,0-3.834.939.5.5,0,0,1-.494,0,8.683,8.683,0,0,0-3.834-.939A1.417,1.417,0,0,0,6.5,12.062v6.656a1.409,1.409,0,0,0,1.408,1.407,5.447,5.447,0,0,1,2.907.792.983.983,0,0,1,.317.337,1,1,0,0,0,1.736,0,1,1,0,0,1,.317-.337,5.447,5.447,0,0,1,2.907-.792A1.409,1.409,0,0,0,17.5,18.718V12.062A1.417,1.417,0,0,0,16.081,10.652ZM11,18.041a.5.5,0,0,1-.654.475A8.182,8.182,0,0,0,8.932,18.2a.5.5,0,0,1-.432-.5V13.259a.5.5,0,0,1,.593-.492,6.115,6.115,0,0,1,1.643.538.5.5,0,0,1,.264.441Zm4.5-.341a.5.5,0,0,1-.432.5,8.182,8.182,0,0,0-1.414.321A.5.5,0,0,1,13,18.041V13.746a.5.5,0,0,1,.264-.441,6.127,6.127,0,0,1,1.643-.538.5.5,0,0,1,.593.492Z"/></svg>