<svg xmlns="http://www.w3.org/2000/svg" viewBox="0 0 24 24"><title>audio-book-art</title><path d="M9.166,11.356a2.738,2.738,0,0,0,.9.162,2.321,2.321,0,0,0,2.146-1.654,1.018,1.018,0,0,1,1.249-.653.749.749,0,1,0,.57-1.386,2.493,2.493,0,0,0-3.19,1.432c-.39.878-.766.83-1.176.684A4.482,4.482,0,0,1,6.386,5.9c0-2.427,2.437-4.4,5.432-4.4a6.212,6.212,0,0,1,3.566,1.085.75.75,0,1,0,.867-1.224A7.717,7.717,0,0,0,11.818,0C8,0,4.886,2.649,4.886,5.9A5.953,5.953,0,0,0,9.166,11.356Z"/><path d="M7.921,7a.9.9,0,1,0,.9-.9A.9.9,0,0,0,7.921,7Z"/><path d="M10.621,4a.9.9,0,1,0-.9.9A.9.9,0,0,0,10.621,4Z"/><path d="M11.821,3.4a.9.9,0,1,0,.9-.9A.9.9,0,0,0,11.821,3.4Z"/><path d="M16.6,6.614a.5.5,0,0,1,.039.514l-2.919,5.839a.75.75,0,1,0,1.341.671L18,7.769a.5.5,0,0,1,.4-.275,2.453,2.453,0,0,0,1.686-1.027,3.309,3.309,0,0,0,.534-2.494A4,4,0,0,0,19.3,1.381a.5.5,0,0,0-.8.359c-.148,1.738-1.187,1.592-1.988,2.754A1.838,1.838,0,0,0,16.6,6.614Z"/><path d="M23,6a1,1,0,0,0-1,1V18.038a.5.5,0,0,1-.475.5,18.324,18.324,0,0,0-7.79,1.895A.5.5,0,0,1,13,19.991V15a1,1,0,1,0-2,0v4.99a.5.5,0,0,1-.735.441,18.32,18.32,0,0,0-7.79-1.895.5.5,0,0,1-.475-.5v-9.5a.5.5,0,0,1,.528-.5c.135.008.269.016.4.026a1,1,0,0,0,.142-1.995q-.734-.053-1.537-.067H1.509a1.518,1.518,0,0,0-1.058.433A1.491,1.491,0,0,0,0,7.51v11.5a1.508,1.508,0,0,0,1.482,1.495c4.681.078,7.32,1.284,8.629,2.163a5.98,5.98,0,0,1,1.143,1,1,1,0,0,0,1.493,0,5.974,5.974,0,0,1,1.142-1c1.309-.879,3.948-2.085,8.629-2.163A1.508,1.508,0,0,0,24,19.01V7A1,1,0,0,0,23,6Z"/></svg>