<svg xmlns="http://www.w3.org/2000/svg" viewBox="0 0 24 24"><title>audio-book-headphones-head</title><path d="M23.386.574a2.048,2.048,0,0,0-1.492-.56,21.492,21.492,0,0,0-3.086.349,1,1,0,0,0,.375,1.965,18.941,18.941,0,0,1,2.283-.287.5.5,0,0,1,.534.5l-.02,14.8a.5.5,0,0,1-.47.5A15.777,15.777,0,0,0,13.391,20.3.25.25,0,0,1,13,20.1V13.512a1,1,0,0,0-2,0V20.1a.25.25,0,0,1-.391.207,15.822,15.822,0,0,0-8.138-2.469.5.5,0,0,1-.47-.5L2.02,2.54a.5.5,0,0,1,.534-.5,18.684,18.684,0,0,1,2.263.286A1,1,0,0,0,5.192.363,21.492,21.492,0,0,0,2.106.014,2.024,2.024,0,0,0,.614.574,1.975,1.975,0,0,0,0,2.012v15.8a2,2,0,0,0,1.94,2c7,.278,9.119,3.561,9.2,3.692a1,1,0,0,0,1.718,0c.021-.034,2.111-3.41,9.2-3.692a2,2,0,0,0,1.941-2V2.012A1.975,1.975,0,0,0,23.386.574Z"/><circle cx="12" cy="7.512" r="3.5"/><path d="M4.25,8.262A2.752,2.752,0,0,0,7,11.012a.75.75,0,0,0,.75-.75v-4.5a4.25,4.25,0,0,1,8.5,0v4.5a.75.75,0,0,0,.75.75,2.75,2.75,0,0,0,1.035-5.3.5.5,0,0,1-.31-.423,5.744,5.744,0,0,0-11.45,0,.5.5,0,0,1-.31.423A2.753,2.753,0,0,0,4.25,8.262Z"/></svg>