<svg xmlns="http://www.w3.org/2000/svg" viewBox="0 0 24 24"><title>audio-book-blind-exam-f</title><path d="M10,6H7.5A2.5,2.5,0,0,0,5,8.5V15a1,1,0,0,0,2,0V12.5a.5.5,0,0,1,.5-.5h1a1,1,0,0,0,0-2h-1A.5.5,0,0,1,7,9.5v-1A.5.5,0,0,1,7.5,8H10a1,1,0,0,0,0-2Z"/><path d="M23.712,18.942a7.683,7.683,0,0,0-6.079-3.3,7.688,7.688,0,0,0-6.079,3.3,1.49,1.49,0,0,0,0,1.763A7.683,7.683,0,0,0,17.633,24a7.681,7.681,0,0,0,6.078-3.3A1.488,1.488,0,0,0,23.712,18.942ZM14.554,20.93a6.692,6.692,0,0,1-.855-.767.5.5,0,0,1,0-.683,5.317,5.317,0,0,1,4.069-1.831.25.25,0,0,1,.171.424l-2.727,2.805A.5.5,0,0,1,14.554,20.93Zm7.014-.767A5.317,5.317,0,0,1,17.5,22a.25.25,0,0,1-.171-.424l2.727-2.805a.5.5,0,0,1,.658-.052,6.611,6.611,0,0,1,.855.767A.5.5,0,0,1,21.568,20.163Z"/><path d="M14.707,5.123A1,1,0,0,1,15,5.83V13.5a1,1,0,0,0,2,0V5.415A1.986,1.986,0,0,0,16.414,4L13,.587A2.015,2.015,0,0,0,11.586,0H2A2,2,0,0,0,0,2V20a2,2,0,0,0,2,2H9a1,1,0,0,0,0-2H2.5a.5.5,0,0,1-.5-.5V2.5A.5.5,0,0,1,2.5,2h8.672a1,1,0,0,1,.707.293Z"/></svg>