<svg xmlns="http://www.w3.org/2000/svg" viewBox="0 0 24 24"><title>audio-book-blind-exam-a</title><path d="M14.707,5.123A1,1,0,0,1,15,5.83V13a1,1,0,0,0,2,0V5.415A1.986,1.986,0,0,0,16.414,4L13,.587A2.015,2.015,0,0,0,11.586,0H2A2,2,0,0,0,0,2V20a2,2,0,0,0,2,2H8.5a1,1,0,0,0,0-2h-6a.5.5,0,0,1-.5-.5V2.5A.5.5,0,0,1,2.5,2h8.672a1,1,0,0,1,.707.293Z"/><path d="M8,5.251a3,3,0,0,0-3,3v5.5a1,1,0,0,0,2,0v-2a.5.5,0,0,1,.5-.5h1a.5.5,0,0,1,.5.5v2a1,1,0,0,0,2,0v-5.5A3,3,0,0,0,8,5.251Zm1,3.5a.5.5,0,0,1-.5.5h-1a.5.5,0,0,1-.5-.5v-.5a1,1,0,0,1,2,0Z"/><path d="M23.712,18.942a7.685,7.685,0,0,0-6.079-3.3,7.688,7.688,0,0,0-6.079,3.3,1.49,1.49,0,0,0,0,1.763A7.683,7.683,0,0,0,17.633,24a7.683,7.683,0,0,0,6.078-3.3A1.488,1.488,0,0,0,23.712,18.942ZM14.554,20.93a6.692,6.692,0,0,1-.855-.767.5.5,0,0,1,0-.683,5.317,5.317,0,0,1,4.069-1.831.25.25,0,0,1,.171.424l-2.727,2.805A.5.5,0,0,1,14.554,20.93Zm7.014-.767A5.317,5.317,0,0,1,17.5,22a.251.251,0,0,1-.224-.156.248.248,0,0,1,.052-.268l2.727-2.805a.5.5,0,0,1,.658-.052,6.678,6.678,0,0,1,.855.767A.5.5,0,0,1,21.568,20.163Z"/></svg>