<svg xmlns="http://www.w3.org/2000/svg" viewBox="0 0 24 24"><title>audio-book-record-microphone-a</title><path d="M11.375,20h-7a.5.5,0,0,1-.5-.5V2.5a.5.5,0,0,1,.5-.5h8.672a1,1,0,0,1,.707.293l2.828,2.829a1,1,0,0,1,.293.707V9.5a1,1,0,0,0,2,0V5.415A1.986,1.986,0,0,0,18.289,4L14.875.587A2.015,2.015,0,0,0,13.461,0H3.875a2,2,0,0,0-2,2V20a2,2,0,0,0,2,2h7.5a1,1,0,1,0,0-2Z"/><path d="M12.875,8.251a3,3,0,0,0-6,0v5.5a1,1,0,0,0,2,0v-2a.5.5,0,0,1,.5-.5h1a.5.5,0,0,1,.5.5v2a1,1,0,0,0,2,0Zm-2,.5a.5.5,0,0,1-.5.5h-1a.5.5,0,0,1-.5-.5v-.5a1,1,0,0,1,2,0Z"/><path d="M15.125,14v3a2.25,2.25,0,1,0,4.5,0V14a2.25,2.25,0,1,0-4.5,0Z"/><path d="M21.375,16.376a.75.75,0,0,0-.75.75,3.25,3.25,0,1,1-6.5,0,.75.75,0,0,0-1.5,0,4.742,4.742,0,0,0,3.619,4.6.5.5,0,0,1,.381.486v1.042a.75.75,0,1,0,1.5,0V22.209a.5.5,0,0,1,.381-.486,4.742,4.742,0,0,0,3.619-4.6A.75.75,0,0,0,21.375,16.376Z"/></svg>