<svg xmlns="http://www.w3.org/2000/svg" viewBox="0 0 24 24"><title>audio-book-file</title><path d="M6,20H2.5a.5.5,0,0,1-.5-.5V2.5A.5.5,0,0,1,2.5,2h8.672a1,1,0,0,1,.707.293l2.828,2.829A1,1,0,0,1,15,5.83V9.961a1,1,0,0,0,2,0V5.415A1.986,1.986,0,0,0,16.414,4L13,.587A2.015,2.015,0,0,0,11.586,0H2A2,2,0,0,0,0,2V20a2,2,0,0,0,2,2H6a1,1,0,0,0,0-2Z"/><circle cx="16.25" cy="20.501" r="3.5"/><path d="M22.285,18.7a.5.5,0,0,1-.31-.423,5.744,5.744,0,0,0-11.45,0,.5.5,0,0,1-.31.423A2.75,2.75,0,0,0,11.25,24a.75.75,0,0,0,.75-.75v-4.5a4.25,4.25,0,1,1,8.5,0v4.5a.75.75,0,0,0,.75.75,2.75,2.75,0,0,0,1.035-5.3Z"/></svg>