<svg xmlns="http://www.w3.org/2000/svg" viewBox="0 0 24 24"><title>audio-book-sports</title><path d="M23.55,6.437a1.522,1.522,0,0,0-1.075-.431c-.354.006-.7.018-1.027.035a1,1,0,1,0,.1,2A.427.427,0,0,1,22,8.465v9.573a.5.5,0,0,1-.475.5,18.339,18.339,0,0,0-7.79,1.895A.5.5,0,0,1,13,19.991V13a1,1,0,1,0-2,0v6.99a.5.5,0,0,1-.735.441,18.334,18.334,0,0,0-7.789-1.895.5.5,0,0,1-.476-.5v-9.5a.5.5,0,0,1,.528-.5c.635.036,1.25.093,1.837.172a1,1,0,0,0,.268-1.982,26.649,26.649,0,0,0-3.1-.226H1.507A1.518,1.518,0,0,0,.45,6.439,1.492,1.492,0,0,0,0,7.509v11.5a1.508,1.508,0,0,0,1.482,1.495c4.681.078,7.32,1.284,8.629,2.163a6.015,6.015,0,0,1,1.143,1,1,1,0,0,0,1.493,0,6.009,6.009,0,0,1,1.142-1c1.31-.879,3.948-2.085,8.629-2.163A1.508,1.508,0,0,0,24,19.01V7.508A1.51,1.51,0,0,0,23.55,6.437Z"/><path d="M12.47,9.973l.217-.217a.506.506,0,0,1,.255-.137L16.7,8.868a2.489,2.489,0,0,0,1.713-.956,1.985,1.985,0,0,0,.265-1.6A1.976,1.976,0,0,0,17.694,4.9a.38.38,0,0,1-.2-.407,2.647,2.647,0,0,0-.824-2.429,2.647,2.647,0,0,0-2.429-.824.383.383,0,0,1-.407-.2A1.976,1.976,0,0,0,12.426.06a1.978,1.978,0,0,0-1.6.266,2.485,2.485,0,0,0-.956,1.712L9.12,5.8a.506.506,0,0,1-.137.255l-.217.217a2.619,2.619,0,0,0,3.7,3.7Zm4.743-3.34c.077.349.019.64-.771.757l-1.313.263a.25.25,0,0,1-.183-.456l1.4-.892C16.637,6.12,17.094,6.069,17.213,6.633ZM14.556,2.754a1.3,1.3,0,0,1,.837,2.38L12.327,7.085a.488.488,0,0,1-.673-.673l1.951-3.066A1.291,1.291,0,0,1,14.556,2.754ZM11.349,2.3c.117-.79.408-.848.757-.771.564.119.513.576.328.865l-.892,1.4a.25.25,0,0,1-.456-.183Z"/></svg>