<svg xmlns="http://www.w3.org/2000/svg" viewBox="0 0 24 24"><title>library-music-1</title><path d="M14.874,14.741a.248.248,0,0,0-.251,0A3.171,3.171,0,0,1,13,15.251H2a.75.75,0,1,1,0-1.5h.5a.5.5,0,0,0,.5-.5V8.5A.5.5,0,0,1,3.5,8H5a.5.5,0,0,1,.5.5v4.75a.5.5,0,0,0,.5.5h4.24a.25.25,0,0,0,.191-.41A3.95,3.95,0,0,1,9.5,10.8a3.992,3.992,0,0,1,2.667-3.756A.5.5,0,0,0,12.5,6.57V5.5A.5.5,0,0,0,12,5H1.5A1.5,1.5,0,0,0,0,6.5v16A1.5,1.5,0,0,0,1.5,24h12A1.5,1.5,0,0,0,15,22.5V14.958A.249.249,0,0,0,14.874,14.741ZM5,22a.5.5,0,0,1-.5.5H3a.5.5,0,0,1-.5-.5V18a.5.5,0,0,1,.5-.5H4.5A.5.5,0,0,1,5,18Zm4.828.276L8.4,22.745a.5.5,0,0,1-.631-.319l-1.247-3.8a.5.5,0,0,1,.319-.631l1.426-.468a.5.5,0,0,1,.631.32l1.246,3.8A.5.5,0,0,1,9.828,22.277Z"/><path d="M23.277.461A2,2,0,0,0,21.632.036l-6,1.125A2,2,0,0,0,14,3.127V7.8a.5.5,0,0,1-.5.5A2.5,2.5,0,1,0,16,10.8V3.541a.5.5,0,0,1,.408-.491l5-.937A.5.5,0,0,1,22,2.6V5.8a.5.5,0,0,1-.5.5A2.5,2.5,0,1,0,24,8.8V2A2,2,0,0,0,23.277.461Z"/></svg>