<svg xmlns="http://www.w3.org/2000/svg" viewBox="0 0 24 24"><title>library-music</title><path d="M17.25,0A6.75,6.75,0,1,0,24,6.751,6.758,6.758,0,0,0,17.25,0Zm0,12a5.25,5.25,0,1,1,5.25-5.25A5.256,5.256,0,0,1,17.25,12Z"/><path d="M17.969,3.416A.75.75,0,0,0,16.75,4V6.5a.25.25,0,0,1-.25.25A1.75,1.75,0,1,0,18.25,8.5V6.082a.25.25,0,0,1,.406-.2l.875.7a.75.75,0,1,0,.938-1.171Z"/><path d="M14.5,15.251H2a.75.75,0,1,1,0-1.5h.5a.5.5,0,0,0,.5-.5V8.5A.5.5,0,0,1,3.5,8H5a.5.5,0,0,1,.5.5v4.75a.5.5,0,0,0,.5.5h4.938a.249.249,0,0,0,.17-.432A8.951,8.951,0,0,1,8.33,5.568.5.5,0,0,0,7.833,5H1.5A1.5,1.5,0,0,0,0,6.5v16A1.5,1.5,0,0,0,1.5,24h12A1.5,1.5,0,0,0,15,22.5v-6.75A.5.5,0,0,0,14.5,15.251ZM5,22a.5.5,0,0,1-.5.5H3a.5.5,0,0,1-.5-.5V18a.5.5,0,0,1,.5-.5H4.5A.5.5,0,0,1,5,18Zm4.828.276L8.4,22.745a.5.5,0,0,1-.631-.319l-1.247-3.8a.5.5,0,0,1,.319-.631l1.426-.468a.5.5,0,0,1,.631.32l1.246,3.8A.5.5,0,0,1,9.828,22.277Z"/></svg>