<svg xmlns="http://www.w3.org/2000/svg" viewBox="0 0 24 24"><title>library-art</title><path d="M13.96,8.292a.75.75,0,0,0,.01-1.061,3.09,3.09,0,0,1-.945-2.186c0-1.954,1.975-3.544,4.4-3.544a.75.75,0,1,0,0-1.5c-3.255,0-5.9,2.263-5.9,5.044A4.631,4.631,0,0,0,12.9,8.282.75.75,0,0,0,13.96,8.292Z"/><path d="M22.609,5.568a.749.749,0,0,0-.951.47,4.338,4.338,0,0,1-.673,1.228.429.429,0,0,1-.645.043A.75.75,0,1,0,19.279,8.37l.861.861a.749.749,0,0,0,1.033.026,6.6,6.6,0,0,0,1.905-2.738A.75.75,0,0,0,22.609,5.568Z"/><circle cx="14.93" cy="5.944" r="0.75"/><circle cx="15.68" cy="3.444" r="0.75"/><path d="M15.381,11.705a1.967,1.967,0,0,1-1.793-1.254.5.5,0,0,0-.207-.245,6.119,6.119,0,0,1-3.088-4.742A.5.5,0,0,0,9.794,5H2.382a1.5,1.5,0,0,0-1.5,1.5v16a1.5,1.5,0,0,0,1.5,1.5h12a1.5,1.5,0,0,0,1.5-1.5v-10.3a.5.5,0,0,0-.5-.5ZM5.882,22a.5.5,0,0,1-.5.5h-1.5a.5.5,0,0,1-.5-.5V18a.5.5,0,0,1,.5-.5h1.5a.5.5,0,0,1,.5.5Zm4.828.276-1.425.468a.5.5,0,0,1-.631-.319l-1.247-3.8a.5.5,0,0,1,.319-.631l1.425-.468a.5.5,0,0,1,.631.32l1.247,3.8A.5.5,0,0,1,10.71,22.277Zm3.172-7.026h-11a.75.75,0,1,1,0-1.5h.5a.5.5,0,0,0,.5-.5V8.5a.5.5,0,0,1,.5-.5h1.5a.5.5,0,0,1,.5.5v4.75a.5.5,0,0,0,.5.5h.5a.5.5,0,0,0,.5-.5V10.5a.5.5,0,0,1,.5-.5h1.5a.5.5,0,0,1,.5.5v2.75a.5.5,0,0,0,.5.5h3a.75.75,0,0,1,0,1.5Z"/><path d="M19.777,5.19A2.221,2.221,0,0,0,21.1,4.559a2.836,2.836,0,0,0,.782-2.046A3.371,3.371,0,0,0,21.1.151a.5.5,0,0,0-.842.233A1.738,1.738,0,0,1,19.19,1.713a3.488,3.488,0,0,0-.9.649,1.587,1.587,0,0,0-.206,1.848.5.5,0,0,1-.037.519L14.826,9.276a.749.749,0,0,0,.179,1.046.762.762,0,0,0,.318.129.75.75,0,0,0,.727-.308L19.412,5.4A.5.5,0,0,1,19.777,5.19Z"/></svg>