<svg xmlns="http://www.w3.org/2000/svg" viewBox="0 0 24 24"><title>library</title><path d="M24,1.5A1.5,1.5,0,0,0,22.5,0H1.5A1.5,1.5,0,0,0,0,1.5v21A1.5,1.5,0,0,0,1.5,24h21A1.5,1.5,0,0,0,24,22.5Zm-14,20a.5.5,0,0,1-.5.5h-3a.5.5,0,0,1-.5-.5v-6a.5.5,0,0,1,.5-.5h3a.5.5,0,0,1,.5.5Zm5.5,0a.5.5,0,0,1-.5.5H13a.5.5,0,0,1-.5-.5v-5A.5.5,0,0,1,13,16h2a.5.5,0,0,1,.5.5Zm5,0a.5.5,0,0,1-.5.5H18a.5.5,0,0,1-.5-.5v-6A.5.5,0,0,1,18,15h2a.5.5,0,0,1,.5.5Zm2.5-9.75a.75.75,0,0,1-.75.75H1.75a.75.75,0,0,1,0-1.5H3a.5.5,0,0,0,.5-.5V3.487A.464.464,0,0,1,3.938,3H6.562A.464.464,0,0,1,7,3.487V10.5a.5.5,0,0,0,.5.5h1a.5.5,0,0,0,.5-.5V6a.522.522,0,0,1,.542-.5h2.166a.522.522,0,0,1,.542.5v4.5a.5.5,0,0,0,.5.5h3.106a.25.25,0,0,0,.235-.336l-2.565-7a.439.439,0,0,1,.295-.565l1.8-.577a.48.48,0,0,1,.6.276l2.886,7.871a.5.5,0,0,0,.469.328H22.25A.75.75,0,0,1,23,11.751Z"/></svg>