<svg xmlns="http://www.w3.org/2000/svg" viewBox="0 0 24 24"><title>library-hidden</title><path d="M14.667,11.105A10.31,10.31,0,0,1,9.935,7.487,3.482,3.482,0,0,1,9.421,4.4a.5.5,0,0,0-.478-.649H1.5A1.5,1.5,0,0,0,0,5.251v16a1.5,1.5,0,0,0,1.5,1.5h12a1.5,1.5,0,0,0,1.5-1.5V11.577A.5.5,0,0,0,14.667,11.105ZM5,20.751a.5.5,0,0,1-.5.5H3a.5.5,0,0,1-.5-.5v-4a.5.5,0,0,1,.5-.5H4.5a.5.5,0,0,1,.5.5Zm4.828.276L8.4,21.5a.5.5,0,0,1-.631-.319l-1.247-3.8a.5.5,0,0,1,.319-.631l1.426-.468a.5.5,0,0,1,.631.32l1.246,3.8A.5.5,0,0,1,9.828,21.027ZM13,14H2a.75.75,0,0,1,0-1.5h.5A.5.5,0,0,0,3,12V7.251a.5.5,0,0,1,.5-.5H5a.5.5,0,0,1,.5.5V12a.5.5,0,0,0,.5.5h.5A.5.5,0,0,0,7,12V9.251a.5.5,0,0,1,.5-.5H9a.5.5,0,0,1,.5.5V12a.5.5,0,0,0,.5.5h3A.75.75,0,0,1,13,14Z"/><path d="M23.712,4.551a7.687,7.687,0,0,0-6.079-3.3,7.686,7.686,0,0,0-6.079,3.3,1.488,1.488,0,0,0,0,1.762,7.684,7.684,0,0,0,6.079,3.3,7.685,7.685,0,0,0,6.078-3.3A1.488,1.488,0,0,0,23.712,4.551ZM14.551,6.54a6.587,6.587,0,0,1-.853-.768.5.5,0,0,1,0-.682,5.345,5.345,0,0,1,4.073-1.837.251.251,0,0,1,.172.425L15.209,6.489A.5.5,0,0,1,14.551,6.54Zm7.016-.767a5.344,5.344,0,0,1-4.073,1.836.25.25,0,0,1-.172-.424l2.733-2.812a.5.5,0,0,1,.659-.052,6.663,6.663,0,0,1,.853.769A.5.5,0,0,1,21.567,5.773Z"/></svg>