<svg xmlns="http://www.w3.org/2000/svg" viewBox="0 0 24 24"><title>library-maths</title><path d="M23.25,8.126h-5a.75.75,0,0,0,0,1.5h5a.75.75,0,0,0,0-1.5Z"/><circle cx="20.75" cy="6.376" r="1"/><circle cx="20.75" cy="11.376" r="1"/><path d="M14.6,8.336A2,2,0,0,1,13,6.376a.5.5,0,0,0-.5-.5,1.988,1.988,0,0,1-1.825-1.2.5.5,0,0,0-.459-.3H1.5A1.5,1.5,0,0,0,0,5.876v16a1.5,1.5,0,0,0,1.5,1.5h12a1.5,1.5,0,0,0,1.5-1.5V8.826A.5.5,0,0,0,14.6,8.336ZM5,21.376a.5.5,0,0,1-.5.5H3a.5.5,0,0,1-.5-.5v-4a.5.5,0,0,1,.5-.5H4.5a.5.5,0,0,1,.5.5Zm4.828.276L8.4,22.12a.5.5,0,0,1-.631-.319L6.525,18a.5.5,0,0,1,.319-.631L8.27,16.9a.5.5,0,0,1,.631.32l1.246,3.8A.5.5,0,0,1,9.828,21.652ZM13,14.626H2a.75.75,0,0,1,0-1.5h.5a.5.5,0,0,0,.5-.5V7.876a.5.5,0,0,1,.5-.5H5a.5.5,0,0,1,.5.5v4.75a.5.5,0,0,0,.5.5h.5a.5.5,0,0,0,.5-.5V9.876a.5.5,0,0,1,.5-.5H9a.5.5,0,0,1,.5.5v2.75a.5.5,0,0,0,.5.5h3a.75.75,0,0,1,0,1.5Z"/><path d="M18.25,3.876a.75.75,0,0,0-.75-.75H16.25a.5.5,0,0,1-.5-.5V1.376a.75.75,0,0,0-1.5,0v1.25a.5.5,0,0,1-.5.5H12.5a.75.75,0,1,0,0,1.5h1.25a.5.5,0,0,1,.5.5v1.25a.75.75,0,1,0,1.5,0V5.126a.5.5,0,0,1,.5-.5H17.5A.75.75,0,0,0,18.25,3.876Z"/></svg>