<svg xmlns="http://www.w3.org/2000/svg" viewBox="0 0 24 24"><title>read-light-idea</title><path d="M23.25,11.748a.75.75,0,0,0-.75.75v7.221a.256.256,0,0,1-.256.249,23.465,23.465,0,0,0-8.779,1.7.5.5,0,0,1-.715-.452V9.37c0-2.686-5.682-4.078-10.961-4.235a1.7,1.7,0,0,0-1.255.49A1.764,1.764,0,0,0,0,6.886V19.719a1.747,1.747,0,0,0,1.713,1.748c4.036.116,7.69.961,9.093,2.1a1.876,1.876,0,0,0,2.388,0c1.4-1.143,5.057-1.988,9.093-2.1A1.747,1.747,0,0,0,24,19.719V12.5A.75.75,0,0,0,23.25,11.748Zm-12,9.464a.5.5,0,0,1-.715.452,23.465,23.465,0,0,0-8.779-1.7.256.256,0,0,1-.256-.249V6.886A.256.256,0,0,1,1.579,6.7a.2.2,0,0,1,.165-.067c6.241.186,9.506,1.88,9.506,2.736Z"/><path d="M9.258,10.149a21.869,21.869,0,0,0-5.186-1.02.742.742,0,0,0-.818.673.751.751,0,0,0,.674.82,20.181,20.181,0,0,1,4.851.949.75.75,0,0,0,.479-1.422Z"/><path d="M9.258,13.822A21.854,21.854,0,0,0,4.072,12.8a.75.75,0,0,0-.144,1.493,20.224,20.224,0,0,1,4.851.95.75.75,0,0,0,.479-1.422Z"/><path d="M9.258,17.5a21.854,21.854,0,0,0-5.186-1.021.75.75,0,0,0-.144,1.493,20.224,20.224,0,0,1,4.851.95A.75.75,0,0,0,9.258,17.5Z"/><path d="M18.5,3a1,1,0,0,0,1-1V1a1,1,0,0,0-2,0V2A1,1,0,0,0,18.5,3Z"/><path d="M22.354,4.122a1,1,0,0,0,.764-.355L23.764,3a1,1,0,1,0-1.528-1.291l-.645.763a1,1,0,0,0,.763,1.646Z"/><path d="M13.882,3.767a1,1,0,1,0,1.527-1.291l-.645-.763A1,1,0,1,0,13.236,3Z"/><path d="M18.5,16.75a.75.75,0,0,0,.75-.75v-.242a.469.469,0,0,1,.237-.407A2,2,0,0,0,20.5,13.612v-.783a.5.5,0,0,1,.25-.433,4.5,4.5,0,1,0-4.5,0,.5.5,0,0,1,.25.433v.783a2,2,0,0,0,1.013,1.739.469.469,0,0,1,.237.407V16A.75.75,0,0,0,18.5,16.75ZM16,8.5A2.5,2.5,0,1,1,18.5,11,2.5,2.5,0,0,1,16,8.5Z"/></svg>