<svg xmlns="http://www.w3.org/2000/svg" viewBox="0 0 24 24"><title>read-glasses</title><path d="M5,16.751a1,1,0,0,0,0,2H21a1,1,0,0,0,0-2Z"/><path d="M24,14.251a1,1,0,0,0-1-1H4.5a4.5,4.5,0,0,0,0,9H23a1,1,0,0,0,0-2H4.5a2.5,2.5,0,0,1,0-5H23A1,1,0,0,0,24,14.251Z"/><path d="M1,7.751h.209a.5.5,0,0,1,.481.364A5,5,0,0,0,11.5,6.751a.5.5,0,0,1,1,0,5,5,0,0,0,9.81,1.364.5.5,0,0,1,.481-.364H23a1,1,0,0,0,0-2h-.209a.5.5,0,0,1-.481-.363,4.979,4.979,0,0,0-9.046-1.25.5.5,0,0,1-.57.217,2.368,2.368,0,0,0-1.388,0,.5.5,0,0,1-.57-.217A4.979,4.979,0,0,0,1.69,5.388a.5.5,0,0,1-.481.363H1a1,1,0,0,0,0,2Zm16.5-4a3,3,0,1,1-3,3A3,3,0,0,1,17.5,3.751Zm-11,0a3,3,0,1,1-3,3A3,3,0,0,1,6.5,3.751Z"/></svg>