<svg xmlns="http://www.w3.org/2000/svg" viewBox="0 0 24 24"><title>read-home-2</title><path d="M21.75,1a1,1,0,0,0-1-1H4.25a2,2,0,0,0-2,2V21a3,3,0,0,0,3,3h13.5a2,2,0,0,0,2-2V20.416a.5.5,0,0,1,.333-.471A1,1,0,0,0,21.75,19ZM5.774,9.336,11.12,4.977a.992.992,0,0,1,1.26,0l5.346,4.359a.751.751,0,0,1-.952,1.161l-.615-.5a.25.25,0,0,0-.409.193v4.106a1,1,0,0,1-1,1H13.6a.5.5,0,0,1-.5-.5v-2.04a1.35,1.35,0,0,0-2.7,0v2.04a.5.5,0,0,1-.5.5H8.75a1,1,0,0,1-1-1V10.185a.251.251,0,0,0-.409-.194l-.615.506a.751.751,0,0,1-.952-1.161ZM18.75,21.5a.5.5,0,0,1-.5.5h-13a1,1,0,0,1,0-2h13a.5.5,0,0,1,.5.5Z"/></svg>