<svg xmlns="http://www.w3.org/2000/svg" viewBox="0 0 24 24"><title>read-human</title><path d="M9.768,8.275A7.305,7.305,0,0,0,8.011,9.457a.25.25,0,0,0,.1.426l3.621,1.006a.989.989,0,0,0,.536,0l3.619-1a.25.25,0,0,0,.1-.427,7.317,7.317,0,0,0-1.756-1.181.25.25,0,0,1-.032-.435,4,4,0,1,0-4.4,0,.25.25,0,0,1-.031.435Z"/><path d="M21.375,12.605A.5.5,0,0,1,21,12.122v-1.3a1,1,0,0,0-1.268-.964l-7.2,2a2,2,0,0,1-1.07,0l-7.2-2A1,1,0,0,0,3,10.817v1.3a.5.5,0,0,1-.375.484,3.5,3.5,0,0,0,0,6.778A.5.5,0,0,1,3,19.867v.45a1,1,0,0,0,.732.963l7.733,2.148a2,2,0,0,0,1.07,0l7.733-2.148A1,1,0,0,0,21,20.317v-.45a.5.5,0,0,1,.375-.484,3.5,3.5,0,0,0,0-6.778ZM5.5,17.328a.667.667,0,0,1-.667.666H3.5a2,2,0,0,1,0-4H4.833a.667.667,0,0,1,.667.667Zm15,.666H19.167a.667.667,0,0,1-.667-.666V14.661a.667.667,0,0,1,.667-.667H20.5a2,2,0,0,1,0,4Z"/></svg>