<svg xmlns="http://www.w3.org/2000/svg" viewBox="0 0 24 24"><title>read-home</title><path d="M19.462,9.508c-4.11.1-6.375,1.4-7.462,2.308-1.087-.9-3.352-2.2-7.462-2.308a1.471,1.471,0,0,0-1.083.424A1.506,1.506,0,0,0,3,11.008v8.765a1.508,1.508,0,0,0,1.464,1.5c4.964.119,6.609,2.161,6.708,2.29a1,1,0,0,0,1.655,0c.088-.115,1.725-2.171,6.708-2.291A1.508,1.508,0,0,0,21,19.773V11.008a1.5,1.5,0,0,0-.453-1.074A1.461,1.461,0,0,0,19.462,9.508ZM13,13.711a.25.25,0,0,1,.078-.182c.563-.532,2.128-1.679,5.378-1.963a.5.5,0,0,1,.544.5v6.757a.5.5,0,0,1-.464.5,12.947,12.947,0,0,0-5.169,1.357A.25.25,0,0,1,13,20.455ZM5,12.064a.5.5,0,0,1,.544-.5c3.259.285,4.823,1.436,5.378,1.961a.249.249,0,0,1,.078.181v6.747a.25.25,0,0,1-.367.221,12.947,12.947,0,0,0-5.169-1.357.5.5,0,0,1-.464-.5Z"/><path d="M23.843,8.539a1,1,0,0,0-.306-1.381l-11-7a1,1,0,0,0-1.074,0l-11,7A1,1,0,0,0,1.537,8.845l10.2-6.487a.5.5,0,0,1,.536,0l10.2,6.487a1,1,0,0,0,1.38-.306Z"/><path d="M17,1a1,1,0,0,0,1,1h1.75a.25.25,0,0,1,.25.25V3a1,1,0,1,0,2,0V1a1,1,0,0,0-1-1H18A1,1,0,0,0,17,1Z"/></svg>