<svg xmlns="http://www.w3.org/2000/svg" viewBox="0 0 24 24"><title>read-world</title><path d="M3.974,9.026a19.206,19.206,0,0,1,6.454,1.2.251.251,0,0,0,.339-.292l-.606-2.41A1.993,1.993,0,0,0,8.22,6H6.8a.5.5,0,0,1-.433-.75,6.522,6.522,0,0,1,8.4-2.626.251.251,0,0,1-.045.469A1.825,1.825,0,0,0,13.34,4.515l-.5,2.017a2.038,2.038,0,0,0,.371,1.706,1.873,1.873,0,0,0,1.4.74.5.5,0,0,1,.444.415.29.29,0,0,0,.358.233,21.811,21.811,0,0,1,4.613-.608.5.5,0,0,0,.483-.5,8.5,8.5,0,1,0-17,.013A.5.5,0,0,0,3.974,9.026Z"/><path d="M21.562,10.437A1.653,1.653,0,0,0,20.478,10h-.025c-3.6.07-6.554.862-8.153,2.062a.5.5,0,0,1-.6,0c-1.6-1.2-4.552-1.992-8.153-2.062H3.522a1.653,1.653,0,0,0-1.084.435A1.429,1.429,0,0,0,2,11.467v7.846a1.49,1.49,0,0,0,1.479,1.458c4.8.087,6.951,1.425,7.421,2.032a.5.5,0,0,1,.1.269,1,1,0,0,0,1.994,0,.5.5,0,0,1,.1-.269c.47-.607,2.619-1.945,7.421-2.032A1.49,1.49,0,0,0,22,19.313V11.467A1.429,1.429,0,0,0,21.562,10.437ZM11,19.967a.249.249,0,0,1-.361.224,16.4,16.4,0,0,0-6.167-1.385.5.5,0,0,1-.472-.5V12.541a.5.5,0,0,1,.531-.5c3.519.214,5.392,1.13,6.114,1.739a1,1,0,0,1,.355.764Zm9-1.66a.5.5,0,0,1-.472.5,16.4,16.4,0,0,0-6.167,1.385A.249.249,0,0,1,13,19.967V14.545a1,1,0,0,1,.355-.764c.722-.609,2.595-1.525,6.114-1.739a.5.5,0,0,1,.531.5Z"/></svg>