<svg xmlns="http://www.w3.org/2000/svg" viewBox="0 0 24 24"><title>read-music-instrument</title><path d="M20.75,0H4.25a2,2,0,0,0-2,2V21a3,3,0,0,0,3,3h13.5a2,2,0,0,0,2-2V20.416a.5.5,0,0,1,.333-.471A1,1,0,0,0,21.75,19V1A1,1,0,0,0,20.75,0ZM6.592,10.027l4.5-1.5a.5.5,0,1,1,.316.949l-.481.16a.26.26,0,0,0-.177.246V11.5a1,1,0,0,0,2,0l.379-4.939a2.5,2.5,0,0,1,2.138-2.283l1.913-.273A.5.5,0,0,1,17.32,5L16.1,5.173a1,1,0,0,0-.854.99V11.5a4,4,0,0,1-8,0v-.279a.259.259,0,0,0-.342-.246.5.5,0,1,1-.316-.949ZM18.75,21.5a.5.5,0,0,1-.5.5h-13a1,1,0,0,1,0-2h13a.5.5,0,0,1,.5.5Z"/></svg>