<svg xmlns="http://www.w3.org/2000/svg" viewBox="0 0 24 24"><title>read-maths</title><path d="M12,8a1,1,0,0,0,1,1h5a1,1,0,1,0,0-2H13A1,1,0,0,0,12,8Z"/><circle cx="15.5" cy="5.001" r="1"/><circle cx="15.5" cy="11.001" r="1"/><path d="M7.5,4.5h1A.5.5,0,0,1,9,5V6a1,1,0,1,0,2,0V5a.5.5,0,0,1,.5-.5h1a1,1,0,0,0,0-2h-1A.5.5,0,0,1,11,2V1A1,1,0,1,0,9,1V2a.5.5,0,0,1-.5.5h-1a1,1,0,1,0,0,2Z"/><path d="M23.55,6.437a1.592,1.592,0,0,0-1.075-.431c-.354.006-.7.018-1.027.035a1,1,0,0,0-.947,1.05,1.01,1.01,0,0,0,1.051.947A.427.427,0,0,1,22,8.465v9.573a.5.5,0,0,1-.475.5,18.324,18.324,0,0,0-7.79,1.895A.5.5,0,0,1,13,19.991V13a1,1,0,0,0-2,0v6.994a.5.5,0,0,1-.735.441,18.319,18.319,0,0,0-7.789-1.895.5.5,0,0,1-.476-.5v-9.5a.5.5,0,0,1,.528-.5,19.96,19.96,0,0,1,4.46.716,1,1,0,1,0,.561-1.92,23.038,23.038,0,0,0-6.017-.832H1.507A1.518,1.518,0,0,0,.45,6.439,1.492,1.492,0,0,0,0,7.509v11.5a1.508,1.508,0,0,0,1.482,1.495c4.681.078,7.32,1.284,8.629,2.163a6.015,6.015,0,0,1,1.143,1,1,1,0,0,0,1.493,0,6.009,6.009,0,0,1,1.142-1c1.31-.879,3.948-2.085,8.629-2.163A1.508,1.508,0,0,0,24,19.01V7.508A1.51,1.51,0,0,0,23.55,6.437Z"/></svg>