<svg xmlns="http://www.w3.org/2000/svg" viewBox="0 0 24 24"><title>read-search</title><path d="M6.354,8.984c-.714-.131-1.5-.234-2.445-.325a.75.75,0,1,1,.145-1.493A24.772,24.772,0,0,1,7.935,7.8a.5.5,0,0,0,.456-.109,8.505,8.505,0,0,1,2.776-1.633.5.5,0,0,0,.333-.472V2.517a.5.5,0,0,0-.232-.422C9.235.8,5.417.11,1.789,0A1.684,1.684,0,0,0,.534.492,1.764,1.764,0,0,0,0,1.753V14.586a1.748,1.748,0,0,0,1.713,1.748,32.012,32.012,0,0,1,3.454.279A.5.5,0,0,0,5.723,16,8.445,8.445,0,0,1,5.5,14.07a8.586,8.586,0,0,1,.064-1.045.5.5,0,0,0-.432-.557c-.379-.049-.784-.094-1.223-.137a.75.75,0,0,1,.145-1.493c.58.056,1.109.118,1.6.188a.5.5,0,0,0,.529-.3,8.553,8.553,0,0,1,.508-1,.5.5,0,0,0-.339-.748Zm-2.3-5.491a21.85,21.85,0,0,1,5.185,1.02.75.75,0,1,1-.478,1.422,20.239,20.239,0,0,0-4.852-.949.75.75,0,1,1,.145-1.493Z"/><path d="M23.466.492A1.721,1.721,0,0,0,22.211,0C18.583.11,14.765.8,12.732,2.1a.5.5,0,0,0-.232.422V5.125a.5.5,0,0,0,.555.5A8.689,8.689,0,0,1,14,5.57c.165,0,.329,0,.492.014a.247.247,0,0,0,.195-.078.244.244,0,0,0,.067-.2.751.751,0,0,1,.508-.794,23.359,23.359,0,0,1,5.184-1.19.75.75,0,1,1,.145,1.493,19.889,19.889,0,0,0-3.743.766.25.25,0,0,0-.012.475A8.482,8.482,0,0,1,18.83,7.08a.5.5,0,0,0,.367.082Q19.8,7.06,20.446,7a.757.757,0,0,1,.819.674.69.69,0,0,1-.483.754.25.25,0,0,0-.107.389,8.492,8.492,0,0,1,1.605,7.18.25.25,0,0,0,.293.3A1.722,1.722,0,0,0,24,14.586V1.753A1.764,1.764,0,0,0,23.466.492Z"/><path d="M16,10.751H12A1.252,1.252,0,0,0,10.75,12v.445a.75.75,0,0,0,1.5.041.25.25,0,0,1,.249-.236H13a.25.25,0,0,1,.25.25V16a.249.249,0,0,1-.25.25.75.75,0,0,0,0,1.5h2a.75.75,0,1,0,0-1.5.249.249,0,0,1-.25-.25V12.5a.25.25,0,0,1,.25-.25h.5a.25.25,0,0,1,.249.234.75.75,0,0,0,1.5-.039V12A1.252,1.252,0,0,0,16,10.751Z"/><path d="M19.9,18.489a.5.5,0,0,1-.064-.629,7,7,0,1,0-1.98,1.98.5.5,0,0,1,.629.063l3.806,3.806a1,1,0,1,0,1.414-1.415ZM14,19a5,5,0,1,1,5-5A5.006,5.006,0,0,1,14,19Z"/></svg>