<svg xmlns="http://www.w3.org/2000/svg" viewBox="0 0 24 24"><title>read-search-alternate</title><path d="M23.466.49A1.7,1.7,0,0,0,22.211,0c-3.9.116-8.014.905-9.9,2.39a.5.5,0,0,1-.618,0C9.8.906,5.686.117,1.789,0A1.7,1.7,0,0,0,.534.49,1.766,1.766,0,0,0,0,1.752V14.585a1.748,1.748,0,0,0,1.713,1.748,31.4,31.4,0,0,1,3.205.252.673.673,0,0,0,.1.007.75.75,0,0,0,.1-1.494,32.756,32.756,0,0,0-3.358-.264.256.256,0,0,1-.257-.249V1.752a.261.261,0,0,1,.078-.186A.275.275,0,0,1,1.744,1.5c6.241.186,9.506,1.879,9.506,2.735V4.97a.75.75,0,0,0,1.5,0V4.235c0-.856,3.265-2.549,9.506-2.735a.3.3,0,0,1,.166.066.261.261,0,0,1,.078.186V14.585a.75.75,0,0,0,1.5,0V1.752A1.766,1.766,0,0,0,23.466.49Z"/><path d="M8.779,6.434a.74.74,0,0,0,.24.039.75.75,0,0,0,.239-1.461A21.854,21.854,0,0,0,4.072,3.991a.75.75,0,0,0-.144,1.493A20.224,20.224,0,0,1,8.779,6.434Z"/><path d="M4.072,11.337a.75.75,0,0,0-.144,1.493c.336.032,1.071.114,1.09.114a.75.75,0,0,0,.09-1.494C4.781,11.41,4.437,11.373,4.072,11.337Z"/><path d="M6.408,7.967c-.679-.117-1.422-.214-2.336-.3a.75.75,0,0,0-.144,1.493c1.626.158,2.213.3,2.353.3a.75.75,0,0,0,.127-1.489Z"/><path d="M16.3,6.089a19.826,19.826,0,0,1,3.773-.774.75.75,0,0,0-.144-1.493,21.269,21.269,0,0,0-4.059.831.749.749,0,1,0,.43,1.436Z"/><path d="M16,10.75H12A1.252,1.252,0,0,0,10.75,12v.445a.75.75,0,0,0,1.5.04.249.249,0,0,1,.249-.235H13a.25.25,0,0,1,.25.25V16a.25.25,0,0,1-.25.25.75.75,0,0,0,0,1.5h2a.75.75,0,0,0,0-1.5.25.25,0,0,1-.25-.25V12.5a.25.25,0,0,1,.25-.25h.5a.249.249,0,0,1,.249.233.75.75,0,0,0,1.5-.038V12A1.252,1.252,0,0,0,16,10.75Z"/><path d="M19.9,18.488a.5.5,0,0,1-.064-.63,7.006,7.006,0,1,0-1.98,1.98.5.5,0,0,1,.629.064l3.806,3.805a1,1,0,0,0,1.414-1.414ZM14,19a5,5,0,1,1,5-5A5.006,5.006,0,0,1,14,19Z"/></svg>