<svg xmlns="http://www.w3.org/2000/svg" viewBox="0 0 24 24"><title>read-home-1</title><path d="M11,13.8V4.839a.5.5,0,0,1,.135-.341c.638-.681,2.434-2.14,6.324-2.458a.5.5,0,0,1,.541.5V9.73a1,1,0,0,0,2,0V2A2.007,2.007,0,0,0,19.376.556,2.053,2.053,0,0,0,17.882,0C13.522.232,11.135,1.773,10,2.819,8.865,1.773,6.478.232,2.119,0A1.988,1.988,0,0,0,.624.556,2.007,2.007,0,0,0,0,2V14.66a1.988,1.988,0,0,0,1.9,2A13.115,13.115,0,0,1,6.71,17.7a1,1,0,0,0,.826-1.821,14.7,14.7,0,0,0-5.07-1.192.5.5,0,0,1-.465-.5L2.014,2.536a.5.5,0,0,1,.542-.5c3.885.32,5.678,1.784,6.309,2.458A.5.5,0,0,1,9,4.837V13.8a1,1,0,0,0,2,0Z"/><path d="M23.823,17.62l-6.5-5.5a.5.5,0,0,0-.647,0l-6.5,5.5a.5.5,0,0,0,.324.882H12v5a.5.5,0,0,0,.5.5H15a.5.5,0,0,0,.5-.5v-2.25a1.5,1.5,0,1,1,3,0V23.5a.5.5,0,0,0,.5.5h2.5a.5.5,0,0,0,.5-.5v-5h1.5a.5.5,0,0,0,.323-.882Z"/></svg>