<svg xmlns="http://www.w3.org/2000/svg" viewBox="0 0 24 24"><title>read-art</title><path d="M20.75,0H4.25a2,2,0,0,0-2,2V21a3,3,0,0,0,3,3h13.5a2,2,0,0,0,2-2V20.416a.5.5,0,0,1,.333-.471A1,1,0,0,0,21.75,19V1A1,1,0,0,0,20.75,0Zm-2,21.5a.5.5,0,0,1-.5.5h-13a1,1,0,0,1,0-2h13a.5.5,0,0,1,.5.5Zm.686-10.763a3.959,3.959,0,0,1-1.386,1.14,1,1,0,0,0-.43.4c-.416.719-1.531,2.67-2.389,4.385a2,2,0,0,1-2.683.894,1.812,1.812,0,0,1-1.015-2.238.25.25,0,0,0-.353-.285,3.109,3.109,0,0,1-1.351.316,3.63,3.63,0,0,1-1.2-.214A6.315,6.315,0,0,1,4.144,9.3C4.144,5.825,7.352,3,11.3,3a7.83,7.83,0,0,1,4.267,1.238.5.5,0,0,0,.563-.011,2,2,0,0,1,2.352.028A4.837,4.837,0,0,1,20.2,7.473,4.312,4.312,0,0,1,19.436,10.738Z"/><path d="M13.355,11.5a.75.75,0,0,0-.633-.851,2.256,2.256,0,0,0-2.356,1.387c-.3.687-.556.6-.824.5A3.611,3.611,0,0,1,6.894,9.3c0-1.954,1.974-3.544,4.4-3.544a5.1,5.1,0,0,1,2.641.712.75.75,0,1,0,.777-1.283A6.59,6.59,0,0,0,11.3,4.251c-3.255,0-5.9,2.263-5.9,5.044a5.082,5.082,0,0,0,3.65,4.661,2.037,2.037,0,0,0,2.693-1.31.775.775,0,0,1,.768-.51A.75.75,0,0,0,13.355,11.5Z"/><circle cx="8.798" cy="10.211" r="0.75"/><circle cx="9.548" cy="7.711" r="0.75"/><circle cx="12.048" cy="7.211" r="0.75"/><path d="M17.581,5.459a.5.5,0,0,0-.5-.055.5.5,0,0,0-.293.414,1.739,1.739,0,0,1-.849,1.475c-.727.566-1.237,1.129-1,2.039a1.822,1.822,0,0,0,.285.608.5.5,0,0,1,.041.515l-2.489,4.978a.75.75,0,0,0,1.342.67l2.593-5.185a.5.5,0,0,1,.327-.262,2.285,2.285,0,0,0,1.22-.84,2.84,2.84,0,0,0,.462-2.143A3.375,3.375,0,0,0,17.581,5.459Z"/></svg>