<svg xmlns="http://www.w3.org/2000/svg" viewBox="0 0 24 24"><title>read-sports</title><path d="M20.75,0H4.25a2,2,0,0,0-2,2V21a3,3,0,0,0,3,3h13.5a2,2,0,0,0,2-2V20.416a.5.5,0,0,1,.333-.471A1,1,0,0,0,21.75,19V1A1,1,0,0,0,20.75,0Zm-2,21.5a.5.5,0,0,1-.5.5h-13a1,1,0,0,1,0-2h13a.5.5,0,0,1,.5.5ZM16.2,14.337l-2.708.543a1.454,1.454,0,0,0-.746.4A4.084,4.084,0,1,1,6.987,9.49a1.379,1.379,0,0,0,.375-.7L7.9,6.1a3.85,3.85,0,0,1,1.481-2.64,3.028,3.028,0,0,1,2.346-.408,3.813,3.813,0,0,1,1.879.906,1,1,0,0,0,.617.263,3.974,3.974,0,0,1,2.581,1.223,3.965,3.965,0,0,1,1.245,2.6,1,1,0,0,0,.259.614,3.8,3.8,0,0,1,.89,1.872C19.385,11.449,19.464,13.677,16.2,14.337Z"/><path d="M16.766,9.327a.5.5,0,0,1-.263-.551A2.389,2.389,0,0,0,15.749,6.5a2.381,2.381,0,0,0-2.268-.749.5.5,0,0,1-.554-.264,2.011,2.011,0,0,0-1.489-.968,1.466,1.466,0,0,0-1.62.581A3.452,3.452,0,0,0,9.373,6.39L8.736,9.574a1,1,0,0,1-.273.511l-.445.445a2.619,2.619,0,0,0,3.7,3.7l.445-.445a1,1,0,0,1,.512-.274l3.2-.64a3.386,3.386,0,0,0,1.271-.442,1.461,1.461,0,0,0,.581-1.618A2.012,2.012,0,0,0,16.766,9.327ZM10,9.383A.252.252,0,0,1,9.85,9.1l.506-2.531c.137-.68.217-1.2.885-1.068.7.139,1.035.463.762,1.116l-1.7,2.667A.25.25,0,0,1,10,9.383Zm1.767,2.139a.5.5,0,0,1-.623-.068l-.348-.349a.5.5,0,0,1-.068-.622l1.916-3.01a1.545,1.545,0,1,1,2.133,2.133Zm3.9.376-2.516.5a.25.25,0,0,1-.183-.456l2.668-1.7c.657-.27.976.074,1.114.764C16.882,11.678,16.361,11.759,15.666,11.9Z"/></svg>